<svg xmlns="http://www.w3.org/2000/svg"><symbol id="python" viewBox="0 0 128 128"><path fill="#FFD845" d="M49.33 62h29.159C86.606 62 93 55.132 93 46.981V19.183c0-7.912-6.632-13.856-14.555-15.176-5.014-.835-10.195-1.215-15.187-1.191-4.99.023-9.612.448-13.805 1.191C37.098 6.188 35 10.758 35 19.183V30h29v4H23.776c-8.484 0-15.914 5.108-18.237 14.811-2.681 11.12-2.8 17.919 0 29.53C7.614 86.983 12.569 93 21.054 93H31V79.952C31 70.315 39.428 62 49.33 62m-1.838-39.11c-3.026 0-5.478-2.479-5.478-5.545 0-3.079 2.451-5.581 5.478-5.581 3.015 0 5.479 2.502 5.479 5.581-.001 3.066-2.465 5.545-5.479 5.545m74.789 25.921C120.183 40.363 116.178 34 107.682 34H97v12.981C97 57.031 88.206 65 78.489 65H49.33C41.342 65 35 72.326 35 80.326v27.8c0 7.91 6.745 12.564 14.462 14.834 9.242 2.717 17.994 3.208 29.051 0C85.862 120.831 93 116.549 93 108.126V97H64v-4h43.682c8.484 0 11.647-5.776 14.599-14.66 3.047-9.145 2.916-17.799 0-29.529m-41.955 55.606c3.027 0 5.479 2.479 5.479 5.547 0 3.076-2.451 5.579-5.479 5.579-3.015 0-5.478-2.502-5.478-5.579 0-3.068 2.463-5.547 5.478-5.547"/></symbol><symbol id="html" viewBox="0 0 128 128"><path fill="#E44D26" d="m9.032 2 10.005 112.093 44.896 12.401 45.02-12.387L118.968 2zm89.126 26.539-.627 7.172L97.255 39H44.59l1.257 14h50.156l-.336 3.471-3.233 36.119-.238 2.27L64 102.609v.002l-.034.018-28.177-7.423L33.876 74h13.815l.979 10.919L63.957 89H64v-.546l15.355-3.875L80.959 67H33.261l-3.383-38.117L29.549 25h68.939z"/></symbol><symbol id="css" viewBox="0 0 128 128"><path fill="#1572B6" d="m8.76 1 10.055 112.883 45.118 12.58 45.244-12.626L119.24 1zm89.591 25.862-3.347 37.605.01.203-.014.467v-.004l-2.378 26.294-.262 2.336L64 101.607v.001l-.022.019-28.311-7.888L33.75 72h13.883l.985 11.054 15.386 4.17-.004.008v-.002l15.443-4.229L81.075 65H48.792l-.277-3.043-.631-7.129L47.553 51h34.749l1.264-14H30.64l-.277-3.041-.63-7.131L29.401 23h69.281z"/></symbol><symbol id="js" viewBox="0 0 128 128"><path fill="#F0DB4F" d="M2 1v125h125V1zm66.119 106.513c-1.845 3.749-5.367 6.212-9.448 7.401-6.271 1.44-12.269.619-16.731-2.059-2.986-1.832-5.318-4.652-6.901-7.901l9.52-5.83c.083.035.333.487.667 1.071 1.214 2.034 2.261 3.474 4.319 4.485 2.022.69 6.461 1.131 8.175-2.427 1.047-1.81.714-7.628.714-14.065C58.433 78.073 58.48 68 58.48 58h11.709c0 11 .06 21.418 0 32.152.025 6.58.596 12.446-2.07 17.361m48.574-3.308c-4.07 13.922-26.762 14.374-35.83 5.176-1.916-2.165-3.117-3.296-4.26-5.795 4.819-2.772 4.819-2.772 9.508-5.485 2.547 3.915 4.902 6.068 9.139 6.949 5.748.702 11.531-1.273 10.234-7.378-1.333-4.986-11.77-6.199-18.873-11.531-7.211-4.843-8.901-16.611-2.975-23.335 1.975-2.487 5.343-4.343 8.877-5.235l3.688-.477c7.081-.143 11.507 1.727 14.756 5.355.904.916 1.642 1.904 3.022 4.045-3.772 2.404-3.76 2.381-9.163 5.879-1.154-2.486-3.069-4.046-5.093-4.724-3.142-.952-7.104.083-7.926 3.403-.285 1.023-.226 1.975.227 3.665 1.273 2.903 5.545 4.165 9.377 5.926 11.031 4.474 14.756 9.271 15.672 14.981.882 4.916-.213 8.105-.38 8.581"/></symbol><symbol id="ts" viewBox="0 0 128 128"><path fill="#007acc" d="M2 63.91v62.5h125v-125H2zm100.73-5a15.56 15.56 0 0 1 7.82 4.5 20.6 20.6 0 0 1 3 4c0 .16-5.4 3.81-8.69 5.85-.12.08-.6-.44-1.13-1.23a7.09 7.09 0 0 0-5.87-3.53c-3.79-.26-6.23 1.73-6.21 5a4.6 4.6 0 0 0 .54 2.34c.83 1.73 2.38 2.76 7.24 4.86 8.95 3.85 12.78 6.39 15.16 10 2.66 4 3.25 10.46 1.45 15.24-2 5.2-6.9 8.73-13.83 9.9a38.3 38.3 0 0 1-9.52-.1A23 23 0 0 1 80 109.19c-1.15-1.27-3.39-4.58-3.25-4.82a9 9 0 0 1 1.15-.73l4.6-2.64 3.59-2.08.75 1.11a16.8 16.8 0 0 0 4.74 4.54c4 2.1 9.46 1.81 12.16-.62a5.43 5.43 0 0 0 .69-6.92c-1-1.39-3-2.56-8.59-5-6.45-2.78-9.23-4.5-11.77-7.24a16.5 16.5 0 0 1-3.43-6.25 25 25 0 0 1-.22-8c1.33-6.23 6-10.58 12.82-11.87a31.7 31.7 0 0 1 9.49.26zm-29.34 5.24v5.12H57.16v46.23H45.65V69.26H29.38v-5a49 49 0 0 1 .14-5.16c.06-.08 10-.12 22-.1h21.81z"/></symbol><symbol id="node" viewBox="0 0 128 128"><path fill="#5fa04e" d="M63.999 0a5.6 5.6 0 0 0-2.789.744L11.445 29.646 28.852 61.58 64.592.053A8 8 0 0 0 64.003 0Zm2.316.605v.002l35.194 60.577 16.545-30.449a5.5 5.5 0 0 0-1.028-.817L91.38 15.024 66.7.754h-.007c-.12-.061-.252-.099-.378-.15Zm-1.024.248L29.417 62.616l35.579 65.278c.1-.02.198-.023.297-.05l35.653-65.624ZM10.586 30.176c-1.502 1.031-2.35 2.752-2.35 4.595v58.478c0 .93.254 1.838.684 2.645l19.34-33.293Zm108.161 1.4-16.643 30.629 17.66 30.398V34.77c0-1.15-.382-2.265-1.017-3.195zm-17.204 31.667-34.808 64.062.055-.028 50.243-29.183.004-.002c1.402-.793 2.3-2.155 2.604-3.693zm-72.718.394L9.545 96.832c.406.5.885.936 1.43 1.266l.001.004 49.702 28.866.53.305.006.002h.002c.257.151.528.266.798.372q.216.082.433.146c.125.037.251.062.376.089q.362.077.727.108c.118.01.237.01.355.01z"/></symbol><symbol id="kotlin" viewBox="0 0 128 128"><path fill="#c711e1" d="M112.484 112.484H15.516V15.516h96.968L64 64Zm0 0"/></symbol><symbol id="c" viewBox="0 0 128 128"><path fill="#03599C" d="m117.5 33.5.3-.2c-.6-1.1-1.5-2.1-2.4-2.6L67.1 2.9c-.8-.5-1.9-.7-3.1-.7s-2.3.3-3.1.7l-48 27.9c-1.7 1-2.9 3.5-2.9 5.4v55.7c0 1.1.2 2.3.9 3.4l-.2.1c.5.8 1.2 1.5 1.9 1.9l48.2 27.9c.8.5 1.9.7 3.1.7s2.3-.3 3.1-.7l48-27.9c1.7-1 2.9-3.5 2.9-5.4V36.1c.1-.8 0-1.7-.4-2.6M64 88.5c9.1 0 17.1-5 21.3-12.4l12.9 7.6c-6.8 11.8-19.6 19.8-34.2 19.8-21.8 0-39.5-17.7-39.5-39.5S42.2 24.5 64 24.5c14.7 0 27.5 8.1 34.3 20l-13 7.5C81.1 44.5 73.1 39.5 64 39.5c-13.5 0-24.5 11-24.5 24.5s11 24.5 24.5 24.5"/></symbol><symbol id="csharp" viewBox="0 0 128 128"><path fill="#68217A" d="m117.5 33.5.3-.2c-.6-1.1-1.5-2.1-2.4-2.6L67.1 2.9c-.8-.5-1.9-.7-3.1-.7s-2.3.3-3.1.7l-48 27.9c-1.7 1-2.9 3.5-2.9 5.4v55.7c0 1.1.2 2.3.9 3.4l-.2.1c.5.8 1.2 1.5 1.9 1.9l48.2 27.9c.8.5 1.9.7 3.1.7s2.3-.3 3.1-.7l48-27.9c1.7-1 2.9-3.5 2.9-5.4V36.1c.1-.8 0-1.7-.4-2.6m-53.5 70c-21.8 0-39.5-17.7-39.5-39.5S42.2 24.5 64 24.5c14.7 0 27.5 8.1 34.3 20l-13 7.5C81.1 44.5 73.1 39.5 64 39.5c-13.5 0-24.5 11-24.5 24.5s11 24.5 24.5 24.5c9.1 0 17.1-5 21.3-12.4l12.9 7.6c-6.8 11.8-19.6 19.8-34.2 19.8M115 62h-3.2l-.9 4h4.1v5h-5l-1.2 6h-4.9l1.2-6h-3.8l-1.2 6h-4.8l1.2-6H94v-5h3.5l.9-4H94v-5h5.3l1.2-6h4.9l-1.2 6h3.8l1.2-6h4.8l-1.2 6h2.2zm-12.7 4h3.8l.9-4h-3.8z"/></symbol><symbol id="cpp" viewBox="0 0 128 128"><path fill="#004482" d="M63.443 0c-1.782 0-3.564.39-4.916 1.172L11.594 28.27C8.89 29.828 6.68 33.66 6.68 36.78v54.197c0 1.562.55 3.298 1.441 4.841l-.002.002c.89 1.543 2.123 2.89 3.475 3.672l46.931 27.094c2.703 1.562 7.13 1.562 9.832 0h.002l46.934-27.094c1.352-.78 2.582-2.129 3.473-3.672.89-1.543 1.441-3.28 1.441-4.843V36.779c0-1.557-.55-3.295-1.441-4.838v-.002c-.891-1.545-2.121-2.893-3.473-3.67L68.359 1.173C67.008.39 65.226 0 63.443 0m.002 26.033c13.465 0 26.02 7.246 32.77 18.91l-16.38 9.479c-3.372-5.836-9.66-9.467-16.39-9.467-10.432 0-18.922 8.49-18.922 18.924S53.013 82.8 63.445 82.8c6.735 0 13.015-3.625 16.395-9.465l16.375 9.477c-6.746 11.662-19.305 18.91-32.77 18.91-20.867 0-37.843-16.977-37.843-37.844s16.976-37.844 37.843-37.844v-.002zM92.881 57.57h4.201v4.207h4.203v4.203h-4.203v4.207h-4.201V65.98h-4.207v-4.203h4.207zm15.765 0h4.208v4.207h4.203v4.203h-4.203v4.207h-4.208V65.98h-4.205v-4.203h4.205z"/></symbol><symbol id="sql" viewBox="0 0 128 128"><path fill="#336791" fill-rule="evenodd" d="M123.258 76.784c-.45-2.918-2.901-4.829-5.752-4.958-1.032-.047-2.08.061-3.109.192-1.243.158-2.471.438-3.711.623-.857.128-1.726.187-2.582.275l-.021-.111c1.598-3.018 3.263-6.003 4.775-9.064 1.159-2.348 2.151-4.781 3.176-7.194 1.696-3.998 3.051-8.12 4.173-12.309 1.075-4.011 1.995-8.066 2.284-12.227.116-1.662.196-3.331.187-4.995-.008-1.327-.151-2.656-.284-3.979-.15-1.516-.608-2.953-1.242-4.336-.836-1.822-2.132-3.317-3.496-4.737-1.092-1.137-2.293-2.173-3.484-3.208-1.698-1.477-3.607-2.656-5.59-3.703a32.2 32.2 0 0 0-7.09-2.75c-1.493-.381-3.02-.664-4.532-.966-.544-.11-1.089-.337-1.633-.337H85.086c-.37 0-.737.191-1.11.233-2.452.273-4.875.735-7.228 1.464-.88.273-1.684.101-2.52.024-.641-.059-1.271-.231-1.912-.263-2.442-.122-4.887-.301-7.328-.275-2.339.024-4.654.409-6.918 1.052-1.895.538-3.749 1.195-5.447 2.191-.727.426-1.303.346-2.055.129-2.527-.729-5.072-1.414-7.639-1.989-1.6-.358-3.245-.536-4.879-.707a57 57 0 0 0-4.718-.294c-1.538-.033-3.087-.032-4.618.104a30.2 30.2 0 0 0-7.158 1.513 23.8 23.8 0 0 0-7.086 3.865c-2.167 1.715-3.905 3.809-5.303 6.2-1.473 2.523-2.483 5.224-3.111 8.061-.34 1.537-.555 3.117-.788 4.678-.073.486.732.972-.268 1.456v6.794c1 .452.208.903.266 1.356.139 1.089.262 2.187.446 3.268.291 1.711.636 3.417.988 5.117a325 325 0 0 0 1.546 7.111c.396 1.72.847 3.43 1.319 5.131.721 2.598 1.431 5.201 2.246 7.77.757 2.387 1.624 4.74 2.484 7.093 1.191 3.255 2.617 6.405 4.327 9.424 1.479 2.614 3.169 5.062 5.436 7.076 1.494 1.327 3.157 2.347 5.093 2.857 1.521.4 3.067.448 4.624.129a11 11 0 0 0 4.824-2.311c.163-.134.342-.236.535.01.735.931 1.719 1.552 2.748 2.089 2.777 1.448 5.803 1.882 8.877 2.059.744.043 1.496-.064 2.246-.085 1.461-.04 2.881-.325 4.278-.729.732-.212 1.447-.481 2.192-.732.039.793.089 1.557.112 2.321l.104 4.166c.019.634.044 1.27.103 1.901.151 1.627.299 3.255.493 4.877.135 1.118.275 2.245.538 3.336a38 38 0 0 0 2.158 6.428 13.8 13.8 0 0 0 3.9 5.185c2.22 1.836 4.822 2.619 7.632 2.764 1.162.061 2.357.004 3.501-.204a49 49 0 0 0 5.387-1.275c3.591-1.084 6.695-2.956 9.014-5.981 1.32-1.724 2.404-3.589 3.1-5.648.574-1.701 1.115-3.419 1.545-5.16.34-1.372.508-2.787.715-4.188.137-.927.219-1.863.305-2.797.14-1.517.283-3.033.384-4.553.07-1.058.067-2.121.109-3.181.013-.323.065-.644.095-.966.028-.298.178-.401.482-.396 1.071.016 2.144.044 3.212-.004 1.197-.054 2.405-.105 3.583-.303a57 57 0 0 0 4.99-1.067c1.943-.508 3.725-1.418 5.44-2.455 1.998-1.207 3.819-2.623 5.297-4.447 1.285-1.591 1.894-3.43 1.584-5.438m-3.412.982c-.066.915-.485 1.699-1.093 2.369-2.869 3.163-6.468 5.082-10.585 6.027-1.564.358-3.178.544-4.779.692a32 32 0 0 1-4.114.097c-1.006-.038-2.004-.268-3.032-.416-.103.94-.201 1.919-.32 2.896l-.479 3.745c-.145 1.187-.258 2.378-.407 3.564-.146 1.151-.328 2.298-.481 3.449-.143 1.072-.248 2.149-.407 3.219-.245 1.64-.479 3.284-.799 4.911-.384 1.945-.973 3.829-1.934 5.583-1.172 2.141-2.834 3.772-4.949 4.98-2.18 1.246-4.563 1.894-6.979 2.436-1.71.384-3.472.447-5.204.291-3.004-.272-5.568-1.557-7.506-3.886-1.85-2.223-3.102-4.771-3.55-7.655a63 63 0 0 1-.491-4.136 108 108 0 0 1-.299-4.62 250 250 0 0 1-.197-5.871c-.053-2.406-.07-4.812-.104-7.218l-.006-.092c-1.224.734-2.427 1.538-3.703 2.2a12.4 12.4 0 0 1-4.798 1.353c-1.318.1-2.653.191-3.965.086-2.151-.173-4.3-.51-6.226-1.569-.781-.43-1.596-.953-2.134-1.64-1.29-1.646-.672-3.726 1.273-4.727 1.344-.693 2.811-.982 4.268-1.319a44 44 0 0 0 3.761-1.029c1.222-.4 1.993-1.391 2.754-2.363l1.206-1.551c-.503-.053-.977-.107-1.451-.151-1.439-.136-2.812-.532-4.125-1.114-1.124-.497-1.141-.551-1.965.343-1.376 1.494-2.714 3.023-4.062 4.542-.992 1.117-1.978 2.241-2.965 3.361-.978 1.108-1.894 2.279-2.947 3.31-1.564 1.531-3.449 2.452-5.698 2.348-1.443-.066-2.764-.572-3.952-1.399-2.452-1.708-4.104-4.097-5.608-6.606-1.927-3.215-3.406-6.64-4.672-10.159-.876-2.432-1.756-4.866-2.521-7.333-.831-2.681-1.56-5.396-2.277-8.11a157 157 0 0 1-1.482-6.182 216 216 0 0 1-1.464-7.079c-.298-1.599-.471-3.221-.712-4.831-.325-2.17-.385-4.36-.267-6.539.105-1.963.387-3.921.667-5.871.388-2.698 1.277-5.244 2.556-7.648.783-1.473 1.755-2.812 2.879-4.056 1.845-2.042 4.078-3.518 6.562-4.626 1.736-.774 3.57-1.24 5.439-1.604 2.774-.54 5.573-.519 8.373-.461 1.224.025 2.443.248 3.666.369 2.633.262 5.214.816 7.762 1.5 1.857.498 3.676 1.143 5.518 1.703.185.056.456.051.607-.048 2.496-1.629 5.224-2.704 8.125-3.319 1.101-.233 2.237-.335 3.363-.407 1.369-.087 2.749-.167 4.115-.088 1.642.094 3.276.336 4.908.56.792.108 1.565.383 2.359.458.38.036.783-.242 1.185-.335 2.049-.473 4.089-1 6.156-1.374 1.539-.278 3.111-.409 4.676-.499 1.745-.1 3.503-.173 5.247-.089a36.7 36.7 0 0 1 6.555.923c2.677.623 5.245 1.528 7.686 2.784 1.824.938 3.558 2.026 5.119 3.364 1.023.878 2.07 1.745 2.994 2.723 1.14 1.206 2.303 2.413 3.018 3.958.538 1.165.922 2.371 1.028 3.647.132 1.586.292 3.178.277 4.766-.014 1.519-.221 3.037-.368 4.552-.334 3.454-1.085 6.833-1.997 10.167a117 117 0 0 1-2.589 8.17c-.879 2.481-1.893 4.917-2.918 7.343a80 80 0 0 1-2.458 5.303c-1.677 3.286-3.421 6.538-5.438 9.633-.348.535-.678 1.083-1.018 1.629.88.594 1.877.803 2.881.911.955.104 1.929.166 2.883.095 1.527-.113 3.049-.331 4.567-.544 1.504-.21 2.978-.638 4.522-.525 1.542.112 2.645 1.284 2.54 2.729m-22.013-3.353c-.655-.846-1.323-1.682-1.964-2.538-1.006-1.344-1.729-2.845-2.455-4.353-.688-1.429-1.532-2.782-2.257-4.195-1.265-2.465-2.553-4.922-3.718-7.435-1.465-3.157-2.62-6.426-2.984-9.923-.154-1.48-.193-2.958.106-4.424.479-2.341 1.702-4.172 3.758-5.428 1.907-1.165 4.032-1.541 6.209-1.659 1.351-.073 2.708-.013 4.11-.013l-.047-.237c-.872-1.823-1.687-3.677-2.641-5.457-1.346-2.512-3.068-4.777-4.986-6.877-1.421-1.555-2.96-2.998-4.646-4.273-1.658-1.255-3.405-2.376-5.269-3.293-2.223-1.093-4.538-1.938-6.967-2.477-2.334-.518-4.683-.835-7.077-.861-2.042-.022-4.071.07-6.06.531-3.002.695-5.748 1.931-8.137 3.933a21 21 0 0 0-3.517 3.77c-1.196 1.643-2.161 3.417-2.986 5.277-1.132 2.552-1.909 5.208-2.44 7.938-.266 1.361-.474 2.734-.686 4.106-.074.48-.08.971-.123 1.521.369-.192.635-.34.907-.472l.885-.397c2.993-1.369 6.094-2.25 9.427-2.149 1.416.043 2.771.323 4.03.943 2.415 1.191 3.828 3.216 4.442 5.779.424 1.769.714 3.573.996 5.372.221 1.405.447 2.825.473 4.242.037 2.071-.068 4.146-.181 6.216a17.4 17.4 0 0 1-1.08 5.146c-1.12 2.993-2.368 5.937-3.534 8.913-.385.983-.681 2.001-1.045 3.082.562 0 1.018-.004 1.474.002.178.003.36.008.532.049 1.34.316 2.502.923 3.455 1.954 1.271 1.372 1.938 2.973 1.972 4.826.019 1.027-.089 2.057-.084 3.084.021 4.786.057 9.572.097 14.357.007.782.046 1.565.102 2.346.117 1.635.235 3.271.395 4.902.112 1.157.268 2.312.451 3.461.259 1.628 1 3.077 1.841 4.462.724 1.191 1.665 2.203 2.905 2.901 2.107 1.186 4.376 1.285 6.663.848 1.545-.295 3.062-.769 4.562-1.258a10.1 10.1 0 0 0 3.937-2.354c1.051-1.019 1.797-2.261 2.3-3.632.976-2.659 1.28-5.459 1.684-8.237.151-1.04.282-2.083.42-3.125.157-1.186.316-2.371.468-3.556.112-.883.214-1.768.322-2.651.154-1.268.317-2.535.464-3.804.113-.981.209-1.966.309-2.949.129-1.256.268-2.512.379-3.77.086-.955.051-1.927.22-2.864.311-1.718 1.123-3.18 2.646-4.125.637-.395 1.356-.655 2.063-.989zm-57.597-7.052a17.5 17.5 0 0 1-1.354-5.622c-.128-1.825.089-3.643.276-5.46.182-1.76.333-3.528.386-5.296.088-2.906-.108-5.808-.247-8.712-.084-1.729.117-3.479.271-5.212.139-1.561.312-3.126.607-4.664.495-2.581 1.152-5.125 2.086-7.591.887-2.338 1.906-4.615 3.345-6.665.986-1.406 2.105-2.72 3.18-4.094l-.319-.113c-3.498-1.111-7.053-1.979-10.709-2.358-1.729-.179-3.464-.284-5.198-.387-.532-.032-1.072.04-1.606.091-1.322.126-2.66.176-3.961.424-2.214.421-4.338 1.129-6.305 2.282-1.766 1.035-3.249 2.373-4.491 3.978-1.372 1.772-2.295 3.776-2.958 5.913-.783 2.521-1.156 5.115-1.257 7.733-.088 2.295-.132 4.603.264 6.889.295 1.702.492 3.422.817 5.117.443 2.311.918 4.617 1.467 6.904.785 3.274 1.569 6.553 2.499 9.787.89 3.099 1.894 6.17 2.982 9.204.89 2.476 1.919 4.906 3.003 7.304.706 1.562 1.561 3.065 2.457 4.528.953 1.553 2.037 3.027 3.508 4.154 1.856 1.423 3.293 1.644 5.179.083.808-.669 1.491-1.495 2.194-2.282 1.117-1.25 2.195-2.534 3.307-3.788 1.416-1.598 2.85-3.179 4.273-4.769.301-.336.59-.682.883-1.022l-.484-.425a17.7 17.7 0 0 1-4.095-5.931m53.688-47.569a62 62 0 0 1 3.309 4.204c2 2.809 3.598 5.842 4.775 9.087.521 1.43.937 2.874.751 4.439-.129 1.096-.118 2.208-.215 3.31-.081.917-.226 1.829-.345 2.743-.178 1.378-.436 2.752-.513 4.136-.073 1.317.003 2.648.086 3.968.084 1.341.265 2.676.388 4.015.139 1.518.326 3.036.369 4.557.035 1.249-.076 2.506-.185 3.753-.13 1.502-.511 2.956-1.079 4.351-.399.982-.876 1.934-1.327 2.917l.181.192.275.213.277-.496a94 94 0 0 0 6.222-11.493 186 186 0 0 0 3.287-7.766c1.624-4.064 2.909-8.242 3.903-12.503.446-1.913.787-3.855 1.09-5.797.236-1.518.433-3.054.477-4.586.047-1.625-.043-3.263-.193-4.884-.112-1.224-.414-2.456-1.181-3.451-1.233-1.602-2.564-3.134-4.201-4.346-1.378-1.021-2.751-2.068-4.23-2.927-2.345-1.36-4.883-2.266-7.535-2.883-2.588-.603-5.21-.863-7.849-.918-1.556-.033-3.119.134-4.672.28-1.407.132-2.805.357-4.222.543 1.52.855 3.019 1.615 4.433 2.511 2.973 1.883 5.637 4.149 7.924 6.831M55.299 72.514c.961-3.073 2.27-6.007 3.538-8.959 1.028-2.394 1.59-4.916 1.777-7.506.093-1.277.067-2.57.004-3.851a45 45 0 0 0-.392-4.259c-.266-1.801-.569-3.603-.995-5.371-.462-1.913-1.627-3.245-3.623-3.736-1.216-.299-2.424-.287-3.653-.093-3.002.473-5.75 1.579-8.31 3.199-.515.326-.798.589-.709 1.328.188 1.565.229 3.155.222 4.735-.01 2.236-.105 4.472-.19 6.707-.028.728-.133 1.452-.211 2.177-.12 1.11-.351 2.219-.344 3.327.007 1.142.124 2.311.401 3.417.88 3.507 2.744 6.377 5.799 8.402 1.879 1.245 3.958 1.873 6.24 1.992.155-.524.293-1.019.446-1.509m-3.586-30.087c-.402-.844-.172-1.543.76-1.867.227-.08.461-.165.697-.188.324-.032.654-.008.982-.008 1.182.006 2.319.171 3.295.923.626.482.794 1.122.389 1.779-.575.932-1.452 1.4-2.529 1.49-1.697.141-2.888-.65-3.594-2.129m47.04-.308c.136-1.124.245-2.251.384-3.375.056-.452-.182-.574-.561-.585-1.192-.033-2.384-.075-3.576-.097-1.344-.024-2.652.192-3.896.703-1.38.568-2.431 1.478-2.86 2.98a9 9 0 0 0-.293 3.41 20 20 0 0 0 1.193 5.176c.834 2.221 1.707 4.441 2.75 6.569 1.413 2.881 3.012 5.67 4.513 8.507.401.757.738 1.547 1.156 2.431a13.8 13.8 0 0 0 1.351-5.622c.041-1.61-.088-3.227-.182-4.838-.059-.986-.198-1.966-.294-2.95-.134-1.371-.337-2.741-.368-4.115-.031-1.397.068-2.802.188-4.197.113-1.338.334-2.665.495-3.997m-2.689-1.082c-.443 1.223-1.39 1.913-2.618 2.116-1.145.188-2.148-.235-2.894-1.148-.531-.65-.328-1.42.468-1.859.914-.506 1.919-.634 3.104-.711.322.059.807.108 1.268.24.669.189.916.692.672 1.362m-35.422 37.66c-.655-.535-1.521-.566-2.144.021-.773.73-1.453 1.565-2.133 2.388-.785.951-1.521 1.94-2.534 2.677-1.474 1.071-3.192 1.515-4.919 1.935-1.373.334-2.752.644-4.129.965l-.017.178c.409.189.805.425 1.231.56 2.1.665 4.236.996 6.455.808 1.602-.136 3.128-.485 4.574-1.171 1.99-.943 3.521-2.437 4.823-4.175.218-.29.317-.719.343-1.093.089-1.321-.582-2.303-1.55-3.093m51.751.526c-1.69.181-3.382.373-5.077.47-.818.047-1.648-.109-2.474-.176-1.385-.112-2.737-.42-3.908-1.16-.678-.427-1.241-.475-1.961-.233-1.028.346-1.867.872-2.115 1.986-.169.753-.23 1.533-.298 2.304-.013.136.157.386.287.42.793.209 1.59.456 2.401.529.996.09 2.01.061 3.013.011 1.083-.054 2.173-.124 3.24-.304 2.515-.422 4.948-1.11 7.109-2.536.779-.515 1.551-1.041 2.325-1.562l-.064-.11c-.826.123-1.648.273-2.478.361" clip-rule="evenodd"/></symbol><symbol id="xml" viewBox="0 0 128 128"><path fill="#005fad" d="M23.25 37.459c-2.661.114-2.363 3.885-2.875 5.797-.837 3.125-1.608 7.1-1.853 10.324-.246 3.138-.044 6.046.353 9.219.309 2.467 1.02 4.104.373 4.767-.52.623-17.199 15.92-18.543 16.786-1.392.903-.428 3.13.37 4.379.841 1.317 1.24 1.999 2.99 1.765 1.645-.222 2.167-2.182 3.127-3.248 1.146-1.353 12.917-12.824 13.957-12.824l-.026-.147c.421 2.923 1.972 5.705 3.598 8.112.798 1.19 1.68 2.352 2.699 3.37.936.937 2.145 1.702 3.145 2.409 2.352.123 4.246-1.618 1.875-3.59-.905-.757-3.935-5.212-4.961-7.676-.957-2.303-3.074-5.762-.782-7.654 7.921-6.6 19.887-12.132 22.711-12.406-1.377 5.422-7.257 16.32-9.408 21.48-.741 1.785-1.233 3.92-.982 5.864.297 2.324 2.046 4.152 3.144 4.326 2.229-.127 3.74-2.086 5.06-3.463 1.832-1.908 3.396-3.672 5.221-5.588 1.812-1.907 3.593-3.918 5.2-5.734.988-1.12 3.6-3.829 5.152-3.829-.584 3.732-3.832 8.33-4.486 12.094-.667 3.85 2.844 8.563 6.52 5.131 3.336-3.117 6.72-6.056 10-9.22 1.162-1.112.935.2 1.196 1.296.263 1.114.945 4.875 1.473 5.89.968 1.857 2.653 3.176 4.799 3.212 1.951.032 3.897-.862 5.258-2.219 1.015-1.011 2.757-3.749.83-4.463-1.23-.456-1.159-.943-2.65-.693-.925.158-1.94.395-2.717.959-1.967-.008-2.042-4.756-1.737-6.215.36-1.741 1.107-3.522.992-5.34-.135-2.24-2.554-3.707-3.115-3.865-.832-.41-1.343.117-2.447 1.133-.928.857-1.947 1.778-2.863 2.646-1.829 1.733-4.11 4.36-5.041 4.36 1.634-3.73 3.8-14.16-3.442-13.24-3.01.384-5.085 2.02-7.457 3.806a253 253 0 0 1-5.014 4.674c-1.269 1.146-1.99 2.152-2.654 2.152.707-3.962 9.02-16.976 4.74-20.644-.858-.722-1.678-1.742-2.761-1.864-1.511.186-3.002.552-4.457 1.016-3.023 1.043-14.846 6.9-22.399 12.306-.701.508-1.15-.451-1.236-1.558-.472-5.732 1.06-11.749 2.654-17.1 1.103-3.732-2.992-6.563-3.531-6.693m96.842 4.877c-.889 1.952-1.067 4.788-1.332 7.06v.008c-2.02-.238-4.646-.495-6.668-.617 1.273 1.586 3.698 3.149 5.658 3.88-.261 1.958-2.326 3.584-3.207 5.476 2.448-.679 3.62-2.514 5.291-4.403 1.935 1.178 4.227 3.363 6.742 3.41-.952-2.022-1.792-3.723-3.525-5.183 1.44-.94 3.842-1.927 4.949-3.387-1.844-.396-3.832-.5-5.629-.08-1.38-1.523-1.605-4.141-2.28-6.164zm-14.733.387c-1.233.113-3.28 2.633-4.453 4.144-4.323 5.564-8.265 16.89-8.9 18.977-1.935 6.398-2.686 14.285 1.502 19.916 2.436 3.284 6.728 3.532 10.935 2.324 2.17-.624 4.344-2.181 5.086-3.875.615-1.411.932-4.037-2.166-2.035-1.198.773-3.395 1.627-7.334 1.564-1.32-.024-3.49-1.92-4.072-3.88-1.024-3.194-.588-7.458-.588-7.458.892-5.505 3.447-11.47 5.688-16.474.869-1.932 3.517-6.748 4.51-8.283 0 .004 1.27-1.997.7-4.123l-.01.017c-.167-.624-.487-.852-.898-.814m16.45 15.935c-.647 1.417-.774 3.483-.965 5.133h-.01c-1.464-.17-3.38-.358-4.836-.45.924 1.152 2.686 2.285 4.106 2.817-.18 1.416-1.682 2.606-2.325 3.975 1.781-.493 2.639-1.829 3.844-3.194 1.404.845 3.074 2.436 4.899 2.471-.679-1.471-1.294-2.709-2.555-3.764 1.039-.678 2.78-1.408 3.582-2.459-1.333-.289-2.789-.36-4.082-.056-1.003-1.107-1.167-3-1.658-4.473m-6.55 12.95c-.443.98-.533 2.4-.665 3.546l-.012-.004a62 62 0 0 0-3.344-.308c.635.8 1.853 1.58 2.836 1.949-.127.98-1.16 1.794-1.605 2.742 1.23-.345 1.82-1.264 2.658-2.213.979.595 2.125 1.689 3.387 1.713-.472-1.015-.894-1.863-1.762-2.598.717-.472 1.92-.972 2.479-1.7-.927-.2-1.927-.252-2.823-.042-.694-.761-.811-2.07-1.148-3.086z"/></symbol><symbol id="vba" viewBox="0 0 128 128"><path fill="#004e8c" d="M64 0A64 64 0 0 0 0 64a64 64 0 0 0 64 64 64 64 0 0 0 64-64A64 64 0 0 0 64 0m-3.76 38.7 6.34.1L48 89.202h-6.58L23.14 38.8h6.579l14 40a23.7 23.7 0 0 1 1.02 4.46h.141a22 22 0 0 1 1.119-4.56zm13.6.1h14.34A15.68 15.68 0 0 1 98.54 42a10.34 10.34 0 0 1 3.84 8.34 12.26 12.26 0 0 1-2.38 7.44 12.52 12.52 0 0 1-6.4 4.501v.139a12.82 12.82 0 0 1 8.16 3.84 11.84 11.84 0 0 1 3.06 8.461 13.18 13.18 0 0 1-4.64 10.48 17.28 17.28 0 0 1-11.7 4H73.84zm12.7 5.26-6.7.06V60.4h5.999a11.48 11.48 0 0 0 7.58-2.4 8.14 8.14 0 0 0 2.781-6.6q0-7.34-9.66-7.34m-6.7 21.641v18.14h8a12 12 0 0 0 8-2.46 8.42 8.42 0 0 0 2.86-6.74q0-8.92-12.16-8.92z"/></symbol><symbol id="json" viewBox="0 0 128 128"><path fill="#505050" d="M45.949 63.71c0 22.998 17.853 30.038 18.223 30.175l.016.005-.05.021h-.001v.001h.001c20.306 6.899 40.668-10.261 40.668-41.251 0-17.054-7.595-37.361-27.7-48.894C105.528 10.083 126 34.393 126 63.903c0 35.822-30.182 62.003-61.873 62.003-2.078 0-37.078-10.935-37.216-51.164-.103-30.18 19.208-40.406 32.72-38.442.009.003-13.682 7.806-13.682 27.41"/><path fill="#505050" fill-rule="evenodd" d="M82.051 64.29c0-22.998-17.853-30.038-18.223-30.175l-.016-.005.05-.021h.001v-.001h-.001C43.556 27.19 23.193 44.35 23.193 75.34c0 17.054 7.595 37.361 27.7 48.894C22.472 117.917 2 93.607 2 64.097 2 28.275 32.182 2.094 63.873 2.094c2.078 0 37.078 10.935 37.216 51.164.103 30.18-19.207 40.406-32.72 38.443-.009-.004 13.682-7.807 13.682-27.411" clip-rule="evenodd"/></symbol><symbol id="rust" fill="currentColor" viewBox="0 0 128 128"><path d="M62.96.242c-.232.135-1.203 1.528-2.16 3.097-2.4 3.94-2.426 3.942-5.65.55-2.098-2.208-2.605-2.612-3.28-2.607-.44.002-.995.152-1.235.332s-.916 1.612-1.504 3.183c-1.346 3.6-1.41 3.715-2.156 3.86-.46.086-1.343-.407-3.463-1.929-1.565-1.125-3.1-2.045-3.411-2.045-1.291 0-1.655.706-2.27 4.4-.78 4.697-.754 4.681-4.988 2.758-1.71-.776-3.33-1.41-3.603-1.41s-.792.293-1.15.652c-.652.652-.653.655-.475 4.246l.178 3.595-.68.364c-.602.322-1.017.283-3.684-.348-3.48-.822-4.216-.8-4.92.15l-.516.693.692 2.964c.38 1.63.745 3.2.814 3.487.067.287-.05.746-.26 1.02-.348.448-.717.49-3.94.44-5.452-.086-5.761.382-3.51 5.3.718 1.56 1.305 2.98 1.305 3.15 0 .898-.717 1.224-3.794 1.727-1.722.28-3.218.51-3.326.51-.107 0-.43.235-.717.522-.937.936-.671 1.816 1.453 4.814 2.646 3.735 2.642 3.75-1.73 5.421-4.971 1.902-5.072 2.37-1.287 5.96 3.525 3.344 3.53 3.295-.461 5.804C.208 62.8.162 62.846.085 63.876c-.093 1.253-.071 1.275 3.538 3.48 3.57 2.18 3.57 2.246.067 5.56C-.078 76.48.038 77 5.013 78.877c4.347 1.64 4.353 1.66 1.702 5.394-1.502 2.117-1.981 3-1.981 3.653 0 1.223.637 1.535 4.44 2.174 3.206.54 3.92.857 3.92 1.741 0 .182-.588 1.612-1.307 3.177-2.236 4.87-1.981 5.275 3.31 5.275 4.93 0 4.799-.15 3.737 4.294-.8 3.35-.813 3.992-.088 4.715.554.556 1.6.494 4.87-.289 2.499-.596 2.937-.637 3.516-.328l.66.354-.177 3.594c-.178 3.593-.177 3.595.475 4.248.358.36.884.652 1.165.652s1.903-.63 3.604-1.404c4.22-1.916 4.194-1.932 4.973 2.75.617 3.711.977 4.4 2.294 4.4.327 0 1.83-.88 3.34-1.958 2.654-1.893 3.342-2.19 4.049-1.74.182.115.89 1.67 1.572 3.455 1.003 2.625 1.37 3.31 1.929 3.576 1.062.51 1.72.1 4.218-2.62 3.016-3.286 3.14-3.27 5.602.72 2.72 4.406 3.424 4.396 6.212-.089 2.402-3.864 2.374-3.862 5.621-.47 2.157 2.25 2.616 2.61 3.343 2.61.464 0 1.019-.175 1.23-.388.214-.213.92-1.786 1.568-3.496.649-1.71 1.321-3.2 1.495-3.31.687-.436 1.398-.13 4.048 1.752 1.56 1.108 3.028 1.96 3.377 1.96 1.296 0 1.764-.92 2.302-4.535.46-3.082.554-3.378 1.16-3.685.596-.302.954-.2 3.75 1.07 1.701.77 3.323 1.402 3.604 1.402s.816-.302 1.184-.672l.672-.67-.184-3.448c-.177-3.29-.16-3.468.364-3.943.54-.488.596-.486 3.615.204 3.656.835 4.338.857 5.025.17.671-.67.664-.818-.254-4.69-1.03-4.346-1.168-4.19 3.78-4.19 3.374 0 3.75-.049 4.18-.523.718-.793.547-1.702-.896-4.779-.729-1.55-1.32-2.96-1.315-3.135.024-.914.743-1.227 4.065-1.767 2.033-.329 3.553-.71 3.829-.96.923-.833.584-1.918-1.523-4.873-2.642-3.703-2.63-3.738 1.599-5.297 5.064-1.866 5.209-2.488 1.419-6.09-3.51-3.335-3.512-3.317.333-5.677 4.648-2.853 4.655-3.496.082-6.335-3.933-2.44-3.93-2.406-.405-5.753 3.78-3.593 3.678-4.063-1.295-5.965-4.388-1.679-4.402-1.72-1.735-5.38 1.588-2.18 1.982-2.903 1.982-3.65 0-1.306-.586-1.598-4.436-2.22-3.216-.52-3.924-.835-3.924-1.75 0-.174.588-1.574 1.307-3.113 1.406-3.013 1.604-4.22.808-4.94-.428-.387-1-.443-4.067-.392-3.208.054-3.618.008-4.063-.439-.486-.488-.48-.557.278-3.725.931-3.88.935-3.975.17-4.694-.777-.73-1.262-.718-4.826.121-2.597.612-3.027.653-3.617.337l-.67-.36.185-3.582.186-3.58-.67-.67c-.369-.37-.891-.67-1.163-.67-.27 0-1.884.64-3.583 1.421-2.838 1.306-3.143 1.393-3.757 1.072-.612-.32-.714-.637-1.237-3.829-.603-3.693-.977-4.412-2.288-4.412-.311 0-1.853.925-3.426 2.055-2.584 1.856-2.93 2.032-3.574 1.807-.533-.186-.843-.59-1.221-1.599-.28-.742-.817-2.172-1.194-3.177-.762-2.028-1.187-2.482-2.328-2.482-.637 0-1.213.458-3.28 2.604-3.25 3.375-3.261 3.374-5.65-.545C66.073 1.78 65.075.382 64.81.24c-.597-.32-1.3-.32-1.85.002m2.96 11.798c2.83 2.014 1.326 6.75-2.144 6.75-3.368 0-5.064-4.057-2.66-6.36 1.358-1.3 3.304-1.459 4.805-.39m-3.558 12.507c1.855.705 2.616.282 6.852-3.8l3.182-3.07 1.347.18c4.225.56 12.627 4.25 17.455 7.666 4.436 3.14 10.332 9.534 12.845 13.93l.537.942-2.38 5.364c-1.31 2.95-2.382 5.673-2.382 6.053 0 .878.576 2.267 1.13 2.726.234.195 2.457 1.265 4.939 2.378l4.51 2.025.178 1.148c.23 1.495.26 5.167.052 6.21l-.163.816h-2.575c-2.987 0-2.756-.267-2.918 3.396-.118 2.656-.76 4.124-2.22 5.075-2.377 1.551-6.304 1.27-7.97-.57-.255-.284-.752-1.705-1.105-3.16-1.03-4.254-2.413-6.64-5.193-8.965-.878-.733-1.595-1.418-1.595-1.522 0-.102.965-.915 2.145-1.803 4.298-3.24 6.77-7.012 7.04-10.747.519-7.126-5.158-13.767-13.602-15.92-2.002-.51-2.857-.526-27.624-.526-14.057 0-25.56-.092-25.56-.204 0-.263 3.125-3.295 4.965-4.816 5.054-4.178 11.618-7.465 18.417-9.22l2.35-.61 3.34 3.387c1.839 1.863 3.64 3.5 4.003 3.637M20.3 46.34c1.539 1.008 2.17 3.54 1.26 5.062-1.405 2.356-4.966 2.455-6.373.178-2.046-3.309 1.895-7.349 5.113-5.24m90.672.13c4.026 2.454.906 8.493-3.404 6.586-2.877-1.273-2.97-5.206-.155-6.64 1.174-.6 2.523-.579 3.56.053M32.163 61.5v15.02h-13.28l-.526-2.285c-1.036-4.5-1.472-9.156-1.211-12.969l.182-2.679 4.565-2.047c2.864-1.283 4.706-2.262 4.943-2.625 1.038-1.584.94-2.715-.518-5.933l-.68-1.502h6.523V61.5M70.39 47.132c2.843.74 4.345 2.245 4.349 4.355.002 1.55-.765 2.52-2.67 3.38-1.348.61-1.562.625-10.063.708l-8.686.084v-8.92h7.782c6.078 0 8.112.086 9.288.393m-2.934 21.554c1.41.392 3.076 1.616 3.93 2.888.898 1.337 1.423 3.076 2.667 8.836 1.05 4.87 1.727 6.46 3.62 8.532 2.345 2.566 1.8 2.466 13.514 2.466 5.61 0 10.198.09 10.198.2 0 .197-3.863 4.764-4.03 4.764-.048 0-2.066-.422-4.484-.939-6.829-1.458-7.075-1.287-8.642 6.032l-1.008 4.702-.91.448c-1.518.75-6.453 2.292-9.01 2.82-4.228.87-8.828 1.162-12.871.821-6.893-.585-16.02-3.259-16.377-4.8-.075-.327-.535-2.443-1.018-4.704-.485-2.26-1.074-4.404-1.31-4.764-1.13-1.724-2.318-1.83-7.547-.674-1.98.44-3.708.796-3.84.796-.248 0-3.923-4.249-3.923-4.535 0-.09 8.728-.194 19.396-.23l19.395-.066.07-6.89c.05-4.865-.018-6.997-.23-7.25-.234-.284-1.485-.358-6.011-.358H53.32v-8.36l6.597.001c3.626.002 7.02.12 7.539.264M37.57 100.02c3.084 1.88 1.605 6.804-2.043 6.8-3.74 0-5.127-4.88-1.94-6.826 1.055-.643 2.908-.63 3.983.026m56.48.206c1.512 1.108 2.015 3.413 1.079 4.95-2.46 4.034-8.612.827-6.557-3.419 1.01-2.085 3.695-2.837 5.478-1.53"/></symbol><symbol id="liquid" viewBox="0 0 32 32"><path d="M30 22.4h-.7c-1 .1-2.1-.2-3-.7-2.4-1.4-5.4-1.4-7.8 0-1.6 1-3.7 1-5.3 0-1.2-.7-2.5-1.1-3.9-1.1s-2.8.3-3.9 1.1c-.7.5-1.6.7-2.5.7H2v2.5h.9c1.3 0 2.6-.4 3.7-1.1.8-.5 1.7-.7 2.7-.7.9 0 1.8.2 2.6.7 2.4 1.4 5.4 1.4 7.8 0 1.6-1 3.7-1 5.3 0 1.3.8 2.9 1.1 4.4 1h.6zm0-6.8h-.7c-1 .1-2.1-.2-3-.7-2.4-1.4-5.4-1.4-7.8 0-1.6 1-3.7 1-5.3 0-1.2-.7-2.5-1.1-3.9-1.1s-2.8.3-3.9 1.1c-.7.5-1.6.7-2.5.7H2v2.5h.8c1.3 0 2.6-.4 3.8-1.1.8-.5 1.7-.7 2.7-.7.9 0 1.8.2 2.6.7 2.4 1.4 5.4 1.4 7.8 0 1.6-1 3.7-1 5.3 0 1.3.8 2.9 1.1 4.4 1h.6zm-.8-6.5c-1 .1-2.1-.2-3-.7-2.4-1.4-5.4-1.4-7.8 0-1.6 1-3.7 1-5.3 0-1.1-.6-2.5-1-3.8-1-1.4 0-2.8.3-3.9 1.1-.8.4-1.7.7-2.5.7H2v2.5h.8c1.3 0 2.6-.4 3.8-1.1.8-.5 1.7-.7 2.7-.7.9 0 1.8.2 2.6.7 2.4 1.4 5.4 1.4 7.8 0 1.6-1 3.7-1 5.3 0 1.3.8 2.9 1.1 4.4 1h.6V9.1z" style="fill:#0a5599"/></symbol></svg>