<svg xmlns="http://www.w3.org/2000/svg"><symbol id="git" viewBox="0 0 128 128"><path fill="#F34F29" d="M124.737 58.378 69.621 3.264c-3.172-3.174-8.32-3.174-11.497 0L46.68 14.71l14.518 14.518c3.375-1.139 7.243-.375 9.932 2.314 2.703 2.706 3.461 6.607 2.294 9.993l13.992 13.993c3.385-1.167 7.292-.413 9.994 2.295 3.78 3.777 3.78 9.9 0 13.679a9.673 9.673 0 0 1-13.683 0 9.68 9.68 0 0 1-2.105-10.521L68.574 47.933l-.002 34.341a9.7 9.7 0 0 1 2.559 1.828c3.778 3.777 3.778 9.898 0 13.683-3.779 3.777-9.904 3.777-13.679 0-3.778-3.784-3.778-9.905 0-13.683a9.7 9.7 0 0 1 3.167-2.11V47.333a9.6 9.6 0 0 1-3.167-2.111c-2.862-2.86-3.551-7.06-2.083-10.576L41.056 20.333 3.264 58.123a8.133 8.133 0 0 0 0 11.5l55.117 55.114c3.174 3.174 8.32 3.174 11.499 0l54.858-54.858a8.135 8.135 0 0 0-.001-11.501"/></symbol><symbol id="github" viewBox="0 0 128 128"><g fill="currentColor"><path fill-rule="evenodd" d="M64 5.103c-33.347 0-60.388 27.035-60.388 60.388 0 26.682 17.303 49.317 41.297 57.303 3.017.56 4.125-1.31 4.125-2.905 0-1.44-.056-6.197-.082-11.243-16.8 3.653-20.345-7.125-20.345-7.125-2.747-6.98-6.705-8.836-6.705-8.836-5.48-3.748.413-3.67.413-3.67 6.063.425 9.257 6.223 9.257 6.223 5.386 9.23 14.127 6.562 17.573 5.02.542-3.903 2.107-6.568 3.834-8.076-13.413-1.525-27.514-6.704-27.514-29.843 0-6.593 2.36-11.98 6.223-16.21-.628-1.52-2.695-7.662.584-15.98 0 0 5.07-1.623 16.61 6.19C53.7 35 58.867 34.327 64 34.304c5.13.023 10.3.694 15.127 2.033 11.526-7.813 16.59-6.19 16.59-6.19 3.287 8.317 1.22 14.46.593 15.98 3.872 4.23 6.215 9.617 6.215 16.21 0 23.194-14.127 28.3-27.574 29.796 2.167 1.874 4.097 5.55 4.097 11.183 0 8.08-.07 14.583-.07 16.572 0 1.607 1.088 3.49 4.148 2.897 23.98-7.994 41.263-30.622 41.263-57.294C124.388 32.14 97.35 5.104 64 5.104z" clip-rule="evenodd"/><path d="M26.484 91.806c-.133.3-.605.39-1.035.185-.44-.196-.685-.605-.543-.906.13-.31.603-.395 1.04-.188.44.197.69.61.537.91zm2.446 2.729c-.287.267-.85.143-1.232-.28-.396-.42-.47-.983-.177-1.254.298-.266.844-.14 1.24.28.394.426.472.984.17 1.255zm2.382 3.477c-.37.258-.976.017-1.35-.52-.37-.538-.37-1.183.01-1.44.373-.258.97-.025 1.35.507.368.545.368 1.19-.01 1.452zm3.261 3.361c-.33.365-1.036.267-1.552-.23-.527-.487-.674-1.18-.343-1.544.336-.366 1.045-.264 1.564.23.527.486.686 1.18.333 1.543zm4.5 1.951c-.147.473-.825.688-1.51.486-.683-.207-1.13-.76-.99-1.238.14-.477.823-.7 1.512-.485.683.206 1.13.756.988 1.237m4.943.361c.017.498-.563.91-1.28.92-.723.017-1.308-.387-1.315-.877 0-.503.568-.91 1.29-.924.717-.013 1.306.387 1.306.88zm4.598-.782c.086.485-.413.984-1.126 1.117-.7.13-1.35-.172-1.44-.653-.086-.498.422-.997 1.122-1.126.714-.123 1.354.17 1.444.663zm0 0"/></g></symbol><symbol id="gitpod" viewBox="0 0 128 128"><defs><linearGradient id="gitpod-a" x1="60.966" x2="19.202" y1="13.48" y2="78.93" gradientTransform="matrix(1.58024 0 0 1.42222 0 .61)" gradientUnits="userSpaceOnUse"><stop offset="0" style="stop-color:#ffb45b;stop-opacity:1"/><stop offset="1" style="stop-color:#ff8a00;stop-opacity:1"/></linearGradient></defs><path d="M76.047 6.922c3.8 6.008 1.488 13.66-5.164 17.094L29.52 45.356c-1.098.566-1.77 1.613-1.77 2.75v33.507c0 1.137.672 2.188 1.77 2.75l32.726 16.887a3.86 3.86 0 0 0 3.508 0L98.48 84.363c1.098-.562 1.77-1.613 1.77-2.75V60.777L70.816 75.77c-6.671 3.398-15.132 1.27-18.898-4.754s-1.41-13.664 5.266-17.067l42.113-21.453C112.129 25.961 128 34.328 128 47.63v36.527c0 8.555-5.078 16.453-13.305 20.7L77.102 124.25c-8.118 4.188-18.086 4.188-26.204 0l-37.593-19.395C5.078 100.61 0 92.711 0 84.156v-38.59c0-8.554 5.078-16.457 13.305-20.699L57.117 2.262c6.653-3.43 15.125-1.344 18.93 4.66m0 0" style="stroke:none;fill-rule:evenodd;fill:url(#gitpod-a)"/></symbol><symbol id="emacs" viewBox="0 0 128 128"><path id="emacs-surface1" d="M60.613 8.012a56.04 56.04 0 0 0-27.34 9.062c-3.437 2.262-5.847 4.238-8.91 7.29-4.652 4.66-8.011 9.363-10.863 15.199-7.937 16.312-7.375 35.937 1.488 51.75 2.598 4.624 5.512 8.46 9.375 12.324 3.063 3.05 5.473 5.039 8.899 7.277a56.01 56.01 0 0 0 61.476 0c3.426-2.238 5.836-4.227 8.899-7.277 3.863-3.864 6.777-7.7 9.375-12.324 8.863-15.813 9.426-35.438 1.488-51.75-2.852-5.836-6.21-10.54-10.863-15.2-3.063-3.05-5.473-5.027-8.91-7.289a55.97 55.97 0 0 0-34.114-9.062m27.325 21.914c4.574 1.187 7.55 4.523 7.773 8.699.187 3.336-1.563 5.96-4.625 6.95-.848.277-1.262.323-2.398.323-1.665.016-2.551-.109-6.665-.898-3.875-.75-5.41-.96-8.46-1.125-7.461-.398-11.461.262-12.387 2.023-.477.914.086 2.204 1.648 3.852.84.863 3.2 2.738 11.176 8.836 5.574 4.25 10.05 7.738 9.96 7.75-.073.027-4.698.203-10.272.414-10.227.387-11.239.46-13.551 1.012-4.285 1.011-8.364 2.925-10.035 4.715-2.227 2.375-1.551 4.734 2.023 7.136 3.5 2.336 9.313 4.301 19.688 6.637 9.726 2.188 14.062 3.602 16.949 5.477.988.648 1.55 1.21 1.812 1.859.688 1.613-1.836 3.176-6.597 4.102-3.188.613-5.29.75-11.727.75-10.336-.012-20.613-.836-26.46-2.137-2.767-.614-2.704-.664.71-.59 6.676.152 23.324-.586 26.05-1.148 1.575-.325 2.063-.864 1.337-1.477-.801-.672-2.098-.984-4.95-1.211-5.55-.437-11.726-1.852-17.148-3.95C43.637 84.79 37.352 80.314 34 75.274c-3.602-5.41-1.562-10.023 5.7-12.937 4.788-1.922 11.76-3 18.175-2.785 4.836.148 8.074.71 11.75 2.035.102.039-.512-.348-1.375-.86-10.324-6.124-16.187-11.5-19.312-17.714-.626-1.25-1.063-2.723-1.063-3.575 0-1.437.8-2.648 2.176-3.3 1.363-.649 2.472-.825 5.136-.825 2.637.012 3.239.075 8.188.876 4.512.726 7.398 1.136 9.625 1.363 4.773.5 9.602.562 10.96.148.79-.25 1.29-.785 1.29-1.398 0-1.664-4.96-3.54-13.875-5.239-3.54-.675-3.914-.789-2.75-.812.45-.012 3.762-.176 7.375-.375 7.938-.437 10.113-.426 11.938.05m0 0" style="stroke:none;fill-rule:nonzero;fill:#421f5f;fill-opacity:1"/></symbol><symbol id="visualstudio" viewBox="0 0 128 128"><defs><linearGradient id="visualstudio-a" x1="48" x2="48" y1="97.75" y2="2.25" gradientTransform="matrix(1 0 0 -1 0 97.75)" gradientUnits="userSpaceOnUse"><stop offset="0" stop-color="#fff"/><stop offset="1" stop-color="#fff" stop-opacity="0"/></linearGradient></defs><path fill="#52218a" d="M14.39 26.295a5.3 5.3 0 0 0-1.417.373l-9.694 4A5.33 5.33 0 0 0 0 35.561v56.88a5.33 5.33 0 0 0 3.28 4.893l9.693 4.066a5.33 5.33 0 0 0 5.521-.865l2.172-1.867a2.947 2.947 0 0 1-4.666-2.4V31.734a2.947 2.947 0 0 1 4.666-2.4l-2.172-1.799a5.33 5.33 0 0 0-4.103-1.24z"/><path fill="#6c33af" d="M94.75.416A8 8 0 0 0 88 2.668l-82.666 91.4A3.08 3.08 0 0 1 0 92.002v.44a5.33 5.33 0 0 0 3.28 4.892l9.693 4.066a5.33 5.33 0 0 0 5.521-.865l2.172-1.867 99.08-81.24A5.053 5.053 0 0 1 128 21.334v-.307a8 8 0 0 0-4.533-7.213L97.094 1.121A8 8 0 0 0 94.75.416"/><path fill="#854cc7" d="M14.871 26.238a5.3 5.3 0 0 0-1.898.43l-9.694 4A5.33 5.33 0 0 0 0 35.561v.441a3.08 3.08 0 0 1 5.334-2.066L88 125.334a8 8 0 0 0 9.094 1.547l26.373-12.694a8 8 0 0 0 4.533-7.212v-.307a5.053 5.053 0 0 1-8.254 3.906l-99.08-81.24-2.172-1.865a5.33 5.33 0 0 0-3.623-1.23z"/><path fill="#b179f1" d="M94.75.416a8 8 0 0 0-5.674 1.469A4.693 4.693 0 0 1 96 6.015v116a4.693 4.693 0 0 1-8 3.319 8 8 0 0 0 9.094 1.547l26.373-12.68a8 8 0 0 0 4.533-7.213V21.016a8 8 0 0 0-4.533-7.215L97.094 1.12A8 8 0 0 0 94.75.416m-5.674 1.469A4.7 4.7 0 0 0 88 2.668a8 8 0 0 1 1.076-.783"/><path fill="url(#visualstudio-a)" fill-rule="evenodd" d="M94.145.348a8 8 0 0 0-3.026.386A8 8 0 0 0 88 2.668L45.494 49.682 20.666 29.334l-2.172-1.865a5.33 5.33 0 0 0-4.814-1.108 3.4 3.4 0 0 0-.707.24l-9.694 4.067A5.33 5.33 0 0 0 0 35.162v57.679a5.33 5.33 0 0 0 3.28 4.493l9.693 4a3.4 3.4 0 0 0 .707.24 5.33 5.33 0 0 0 4.814-1.105l2.172-1.801 24.828-20.346L88 125.334a8 8 0 0 0 3.854 2.135 8 8 0 0 0 5.24-.588l26.373-12.68a8 8 0 0 0 4.533-7.213V21.016a8 8 0 0 0-4.533-7.215L97.094 1.12a8 8 0 0 0-2.95-.773ZM96 36.908v54.186L62.947 64.002Zm-80 8.787 16.547 18.307L16 82.309Z" opacity=".25"/></symbol><symbol id="vscode" viewBox="0 0 128 128"><mask id="vscode-a" width="128" height="128" x="0" y="0" maskUnits="userSpaceOnUse" style="mask-type:alpha"><path fill="#fff" fill-rule="evenodd" d="M90.767 127.126a7.97 7.97 0 0 0 6.35-.244l26.353-12.681a8 8 0 0 0 4.53-7.209V21.009a8 8 0 0 0-4.53-7.21L97.117 1.12a7.97 7.97 0 0 0-9.093 1.548l-50.45 46.026L15.6 32.013a5.33 5.33 0 0 0-6.807.302l-7.048 6.411a5.335 5.335 0 0 0-.006 7.888L20.796 64 1.74 81.387a5.336 5.336 0 0 0 .006 7.887l7.048 6.411a5.33 5.33 0 0 0 6.807.303l21.974-16.68 50.45 46.025a8 8 0 0 0 2.743 1.793Zm5.252-92.183L57.74 64l38.28 29.058V34.943Z" clip-rule="evenodd"/></mask><g mask="url(#vscode-a)"><path fill="#0065A9" d="M123.471 13.82 97.097 1.12A7.97 7.97 0 0 0 88 2.668L1.662 81.387a5.333 5.333 0 0 0 .006 7.887l7.052 6.411a5.33 5.33 0 0 0 6.811.303l103.971-78.875c3.488-2.646 8.498-.158 8.498 4.22v-.306a8 8 0 0 0-4.529-7.208Z"/><g filter="url(#vscode-b)"><path fill="#007ACC" d="m123.471 114.181-26.374 12.698A7.97 7.97 0 0 1 88 125.333L1.662 46.613a5.333 5.333 0 0 1 .006-7.887l7.052-6.411a5.33 5.33 0 0 1 6.811-.303l103.971 78.874c3.488 2.647 8.498.159 8.498-4.219v.306a8 8 0 0 1-4.529 7.208"/></g><g filter="url(#vscode-c)"><path fill="#1F9CF0" d="M97.098 126.882A7.98 7.98 0 0 1 88 125.333c2.952 2.952 8 .861 8-3.314V5.98c0-4.175-5.048-6.266-8-3.313a7.98 7.98 0 0 1 9.098-1.549L123.467 13.8A8 8 0 0 1 128 21.01v85.982a8 8 0 0 1-4.533 7.21z"/></g><path fill="url(#vscode-d)" fill-rule="evenodd" d="M90.69 127.126a7.97 7.97 0 0 0 6.349-.244l26.353-12.681a8 8 0 0 0 4.53-7.21V21.009a8 8 0 0 0-4.53-7.21L97.039 1.12a7.97 7.97 0 0 0-9.093 1.548l-50.45 46.026-21.974-16.68a5.33 5.33 0 0 0-6.807.302l-7.048 6.411a5.336 5.336 0 0 0-.006 7.888L20.718 64 1.662 81.386a5.335 5.335 0 0 0 .006 7.888l7.048 6.411a5.33 5.33 0 0 0 6.807.303l21.975-16.681 50.45 46.026a8 8 0 0 0 2.742 1.793m5.252-92.184L57.662 64l38.28 29.057z" clip-rule="evenodd" opacity=".25" style="mix-blend-mode:overlay"/></g><defs><filter id="vscode-b" width="144.744" height="113.408" x="-8.411" y="22.594" color-interpolation-filters="sRGB" filterUnits="userSpaceOnUse"><feFlood flood-opacity="0" result="BackgroundImageFix"/><feColorMatrix in="SourceAlpha" result="hardAlpha" values="0 0 0 0 0 0 0 0 0 0 0 0 0 0 0 0 0 0 127 0"/><feOffset/><feGaussianBlur stdDeviation="4.167"/><feColorMatrix values="0 0 0 0 0 0 0 0 0 0 0 0 0 0 0 0 0 0 0.25 0"/><feBlend in2="BackgroundImageFix" mode="overlay" result="effect1_dropShadow_1_36"/><feBlend in="SourceGraphic" in2="effect1_dropShadow_1_36" result="shape"/></filter><filter id="vscode-c" width="56.667" height="144.007" x="79.667" y="-8.004" color-interpolation-filters="sRGB" filterUnits="userSpaceOnUse"><feFlood flood-opacity="0" result="BackgroundImageFix"/><feColorMatrix in="SourceAlpha" result="hardAlpha" values="0 0 0 0 0 0 0 0 0 0 0 0 0 0 0 0 0 0 127 0"/><feOffset/><feGaussianBlur stdDeviation="4.167"/><feColorMatrix values="0 0 0 0 0 0 0 0 0 0 0 0 0 0 0 0 0 0 0.25 0"/><feBlend in2="BackgroundImageFix" mode="overlay" result="effect1_dropShadow_1_36"/><feBlend in="SourceGraphic" in2="effect1_dropShadow_1_36" result="shape"/></filter><linearGradient id="vscode-d" x1="63.922" x2="63.922" y1=".33" y2="127.67" gradientUnits="userSpaceOnUse"><stop stop-color="#fff"/><stop offset="1" stop-color="#fff" stop-opacity="0"/></linearGradient></defs></symbol><symbol id="docker" viewBox="0 0 128 128"><path fill="#3A4D54" fill-rule="evenodd" d="M73.8 50.8h11.3v11.5h5.7c2.6 0 5.3-.5 7.8-1.3 1.2-.4 2.6-1 3.8-1.7-1.6-2.1-2.4-4.7-2.6-7.3-.3-3.5.4-8.1 2.8-10.8l1.2-1.4 1.4 1.1c3.6 2.9 6.5 6.8 7.1 11.4 4.3-1.3 9.3-1 13.1 1.2l1.5.9-.8 1.6c-3.2 6.2-9.9 8.2-16.4 7.8-9.8 24.3-31 35.8-56.8 35.8-13.3 0-25.5-5-32.5-16.8l-.1-.2-1-2.1c-2.4-5.2-3.1-10.9-2.6-16.6l.2-1.7h9.6V50.8h11.3V39.6h22.5V28.3h13.5z" clip-rule="evenodd"/><path fill="#00AADA" d="M110.4 55.1c.8-5.9-3.6-10.5-6.4-12.7-3.1 3.6-3.6 13.2 1.3 17.2-2.8 2.4-8.5 4.7-14.5 4.7H18.6c-.6 6.2.5 11.9 3 16.8l.8 1.5c.5.9 1.1 1.7 1.7 2.6 3 .2 5.7.3 8.2.2 4.9-.1 8.9-.7 12-1.7.5-.2.9.1 1.1.5.2.5-.1.9-.5 1.1-.4.1-.8.3-1.3.4-2.4.7-5 1.1-8.3 1.3h-.6c-1.3.1-2.7.1-4.2.1-1.6 0-3.1 0-4.9-.1 6 6.8 15.4 10.8 27.2 10.8 25 0 46.2-11.1 55.5-35.9 6.7.7 13.1-1 16-6.7-4.5-2.7-10.5-1.8-13.9-.1"/><path fill="#28B8EB" d="M110.4 55.1c.8-5.9-3.6-10.5-6.4-12.7-3.1 3.6-3.6 13.2 1.3 17.2-2.8 2.4-8.5 4.7-14.5 4.7h-68c-.3 9.5 3.2 16.7 9.5 21 4.9-.1 8.9-.7 12-1.7.5-.2.9.1 1.1.5.2.5-.1.9-.5 1.1-.4.1-.8.3-1.3.4-2.4.7-5.2 1.2-8.5 1.4l-.1-.1c8.5 4.4 20.8 4.3 35-1.1 15.8-6.1 30.6-17.7 40.9-30.9-.2.1-.4.1-.5.2"/><path fill="#028BB8" d="M18.7 71.8c.4 3.3 1.4 6.4 2.9 9.3l.8 1.5c.5.9 1.1 1.7 1.7 2.6 3 .2 5.7.3 8.2.2 4.9-.1 8.9-.7 12-1.7.5-.2.9.1 1.1.5.2.5-.1.9-.5 1.1-.4.1-.8.3-1.3.4-2.4.7-5.2 1.2-8.5 1.4h-.4c-1.3.1-2.7.1-4.1.1-1.6 0-3.2 0-4.9-.1 6 6.8 15.5 10.8 27.3 10.8 21.4 0 40-8.1 50.8-26H18.7z"/><path fill="#019BC6" d="M23.5 71.8c1.3 5.8 4.3 10.4 8.8 13.5 4.9-.1 8.9-.7 12-1.7.5-.2.9.1 1.1.5.2.5-.1.9-.5 1.1-.4.1-.8.3-1.3.4-2.4.7-5.2 1.2-8.6 1.4 8.5 4.4 20.8 4.3 34.9-1.1 8.5-3.3 16.8-8.2 24.2-14.1z"/><path fill="#00ACD3" fill-rule="evenodd" d="M28.4 52.7h9.8v9.8h-9.8zm.8.8h.8v8.1h-.8zm1.4 0h.8v8.1h-.8zm1.5 0h.8v8.1h-.8zm1.5 0h.8v8.1h-.8zm1.5 0h.8v8.1h-.8zm1.5 0h.8v8.1h-.8zm3-12h9.8v9.8h-9.8zm.9.8h.8v8.1h-.8zm1.4 0h.8v8.1h-.8zm1.5 0h.8v8.1h-.8zm1.5 0h.8v8.1h-.8zm1.4 0h.8v8.1h-.8zm1.5 0h.8v8.1h-.8z" clip-rule="evenodd"/><path fill="#23C2EE" fill-rule="evenodd" d="M39.6 52.7h9.8v9.8h-9.8zm.9.8h.8v8.1h-.8zm1.4 0h.8v8.1h-.8zm1.5 0h.8v8.1h-.8zm1.5 0h.8v8.1h-.8zm1.4 0h.8v8.1h-.8zm1.5 0h.8v8.1h-.8z" clip-rule="evenodd"/><path fill="#00ACD3" fill-rule="evenodd" d="M50.9 52.7h9.8v9.8h-9.8zm.8.8h.8v8.1h-.8zm1.5 0h.8v8.1h-.8zm1.5 0h.8v8.1h-.8zm1.4 0h.8v8.1h-.8zm1.5 0h.8v8.1h-.8zm1.5 0h.8v8.1h-.8z" clip-rule="evenodd"/><path fill="#23C2EE" fill-rule="evenodd" d="M50.9 41.5h9.8v9.8h-9.8zm.8.8h.8v8.1h-.8zm1.5 0h.8v8.1h-.8zm1.5 0h.8v8.1h-.8zm1.4 0h.8v8.1h-.8zm1.5 0h.8v8.1h-.8zm1.5 0h.8v8.1h-.8zm3.1 10.4H72v9.8h-9.8zm.8.8h.8v8.1H63zm1.5 0h.8v8.1h-.8zm1.4 0h.8v8.1h-.8zm1.5 0h.8v8.1h-.8zm1.5 0h.8v8.1h-.8zm1.5 0h.8v8.1h-.8z" clip-rule="evenodd"/><path fill="#00ACD3" fill-rule="evenodd" d="M62.2 41.5H72v9.8h-9.8zm.8.8h.8v8.1H63zm1.5 0h.8v8.1h-.8zm1.4 0h.8v8.1h-.8zm1.5 0h.8v8.1h-.8zm1.5 0h.8v8.1h-.8zm1.5 0h.8v8.1h-.8z" clip-rule="evenodd"/><path fill="#23C2EE" fill-rule="evenodd" d="M62.2 30.2H72V40h-9.8zm.8.8h.8v8.1H63zm1.5 0h.8v8.1h-.8zm1.4 0h.8v8.1h-.8zm1.5 0h.8v8.1h-.8zm1.5 0h.8v8.1h-.8zm1.5 0h.8v8.1h-.8z" clip-rule="evenodd"/><path fill="#00ACD3" fill-rule="evenodd" d="M73.5 52.7h9.8v9.8h-9.8zm.8.8h.8v8.1h-.8zm1.4 0h.8v8.1h-.8zm1.5 0h.8v8.1h-.8zm1.5 0h.8v8.1h-.8zm1.5 0h.8v8.1h-.8zm1.5 0h.8v8.1h-.8z" clip-rule="evenodd"/><path fill="#D4EEF1" fill-rule="evenodd" d="M48.8 78.3c1.5 0 2.7 1.2 2.7 2.7s-1.2 2.7-2.7 2.7-2.7-1.2-2.7-2.7 1.2-2.7 2.7-2.7" clip-rule="evenodd"/><path fill="#3A4D54" fill-rule="evenodd" d="M48.8 79.1c.2 0 .5 0 .7.1-.2.1-.4.4-.4.7 0 .4.4.8.8.8.3 0 .6-.2.7-.4.1.2.1.5.1.7 0 1.1-.9 1.9-1.9 1.9-1.1 0-1.9-.9-1.9-1.9s.8-1.9 1.9-1.9M1.1 72.8h125.4c-2.7-.7-8.6-1.6-7.7-5.2-5 5.7-16.9 4-20 1.2-3.4 4.9-23 3-24.3-.8-4.2 5-17.3 5-21.5 0-1.4 3.8-21 5.7-24.3.8-3 2.8-15 4.5-20-1.2 1.1 3.5-4.9 4.5-7.6 5.2" clip-rule="evenodd"/><path fill="#BFDBE0" d="M56 97.8c-6.7-3.2-10.3-7.5-12.4-12.2-2.5.7-5.5 1.2-8.9 1.4-1.3.1-2.7.1-4.1.1-1.7 0-3.4 0-5.2-.1 6 6 13.6 10.7 27.5 10.8z"/><path fill="#D4EEF1" d="M46.1 89.9c-.9-1.3-1.8-2.8-2.5-4.3-2.5.7-5.5 1.2-8.9 1.4 2.3 1.2 5.7 2.4 11.4 2.9"/></symbol><symbol id="parcel" viewBox="0 0 24 24"><image width="24" height="24" href="https://parceljs.org/favicon.fe6f9d11.ico"/></symbol><symbol id="vitejs" viewBox="0 0 128 128"><defs><linearGradient id="vitejs-a" x1="6" x2="235" y1="33" y2="344" gradientTransform="translate(0 .937)scale(.3122)" gradientUnits="userSpaceOnUse"><stop offset="0" stop-color="#41d1ff"/><stop offset="1" stop-color="#bd34fe"/></linearGradient><linearGradient id="vitejs-b" x1="194.651" x2="236.076" y1="8.818" y2="292.989" gradientTransform="translate(0 .937)scale(.3122)" gradientUnits="userSpaceOnUse"><stop offset="0" stop-color="#ffea83"/><stop offset=".083" stop-color="#ffdd35"/><stop offset="1" stop-color="#ffa800"/></linearGradient></defs><path fill="url(#vitejs-a)" d="M124.766 19.52 67.324 122.238c-1.187 2.121-4.234 2.133-5.437.024L3.305 19.532c-1.313-2.302.652-5.087 3.261-4.622L64.07 25.187a3.1 3.1 0 0 0 1.11 0l56.3-10.261c2.598-.473 4.575 2.289 3.286 4.594m0 0"/><path fill="url(#vitejs-b)" d="M91.46 1.43 48.954 9.758a1.56 1.56 0 0 0-1.258 1.437l-2.617 44.168a1.563 1.563 0 0 0 1.91 1.614l11.836-2.735a1.562 1.562 0 0 1 1.88 1.836l-3.517 17.219a1.562 1.562 0 0 0 1.985 1.805l7.308-2.223c1.133-.344 2.223.652 1.985 1.812l-5.59 27.047c-.348 1.692 1.902 2.614 2.84 1.164l.625-.968 34.64-69.13c.582-1.16-.421-2.48-1.69-2.234l-12.185 2.352a1.558 1.558 0 0 1-1.793-1.965l7.95-27.562A1.56 1.56 0 0 0 91.46 1.43m0 0"/></symbol><symbol id="vuejs" viewBox="0 0 128 128"><path fill="none" d="m0 8.934 49.854.158 14.167 24.47 14.432-24.47L128 8.935l-63.834 110.14zm126.98.637-24.36.02-38.476 66.053L25.691 9.592.942 9.572l63.211 107.89zm-25.149-.008-22.745.168-15.053 24.647L49.216 9.73l-22.794-.168 37.731 64.476zm-75.834-.17 23.002.009m-23.002-.01 23.002.01"/><path fill="#35495e" d="m25.997 9.393 23.002.009L64.035 34.36 79.018 9.404 102 9.398 64.15 75.053z"/><path fill="#41b883" d="m.91 9.569 25.067-.172 38.15 65.659L101.98 9.401l25.11.026-62.966 108.06z"/></symbol><symbol id="svelte" viewBox="0 0 128 128"><path id="svelte-path598" fill="#ff3e00" d="M110.43 16.936C98.553-.076 75.09-5.118 58.13 5.696l-29.792 19a34.2 34.2 0 0 0-15.48 22.897 25.478 30.64 0 0 0-.572 6.396 36.15 36.15 0 0 0 4.163 16.73A34.4 34.4 0 0 0 11.34 83.5a25.348 30.483 0 0 0 .345 14.412 36.5 36.5 0 0 0 5.9 13.152c11.878 17.01 35.394 22.053 52.3 11.24l29.762-19.001a34.13 34.13 0 0 0 15.438-22.918 35.5 35.5 0 0 0 .572-6.386 36.2 36.2 0 0 0-4.112-16.71 34.4 34.4 0 0 0 5.112-12.77c.369-2.11.557-4.245.562-6.386a36.4 36.4 0 0 0-6.787-21.178z" style="stroke-width:.911885"/><path id="svelte-path600" fill="#fff" d="M55.219 112.662a28.463 34.23 0 0 1-5.954.76 23.64 23.64 0 0 1-19.435-10.187 21.9 21.9 0 0 1-4.08-12.74 15.658 18.83 0 0 1 .333-3.833 15.425 18.55 0 0 1 .72-2.782l.561-1.708 1.52 1.156a38.7 38.7 0 0 0 11.658 5.834l1.104.333-.104 1.104v.573a6.63 6.63 0 0 0 1.228 3.854 7.1 7.1 0 0 0 2.538 2.288 8.262 9.936 0 0 0 3.312.837 8.251 9.923 0 0 0 1.79-.229 7.272 8.745 0 0 0 1.833-.802l29.76-19.094a6.26 6.26 0 0 0 2.904-5.302 6.62 6.62 0 0 0-1.26-3.844 7.14 7.14 0 0 0-2.553-2.252 8.313 9.997 0 0 0-3.307-.81 8.246 9.917 0 0 0-1.79.23 6.938 8.344 0 0 0-1.822.801l-11.346 7.25a24.376 29.314 0 0 1-6.048 2.656 23.64 23.64 0 0 1-25.39-9.416 21.94 21.94 0 0 1-4.08-12.74c.002-1.285.114-2.567.333-3.833a20.65 20.65 0 0 1 9.286-13.781l29.792-18.99a21.9 21.9 0 0 1 6.048-2.667 24 24 0 0 1 5.954-.75A23.68 23.68 0 0 1 98.22 24.745a21.94 21.94 0 0 1 4.029 12.75 15.748 18.939 0 0 1-.334 3.844 15.407 18.529 0 0 1-.718 2.781l-.562 1.708-1.52-1.114a38.4 38.4 0 0 0-11.658-5.834l-1.104-.343.104-1.105v-.572a6.7 6.7 0 0 0-1.228-3.865 7.1 7.1 0 0 0-2.55-2.25 8.309 9.992 0 0 0-3.3-.813 8.221 9.887 0 0 0-1.77.271 6.819 8.2 0 0 0-1.831.802l-29.793 18.99a5.88 7.071 0 0 0-1.836 1.79 4.75 5.713 0 0 0-.963 2.377 5.037 6.057 0 0 0-.136 1.104 6.62 6.62 0 0 0 1.228 3.844 7.1 7.1 0 0 0 2.549 2.25 8.299 9.98 0 0 0 3.301.812 8.247 9.918 0 0 0 1.79-.23 6.943 8.35 0 0 0 1.833-.801l11.367-7.292a24.218 29.125 0 0 1 6.048-2.656 28.526 34.305 0 0 1 5.954-.76A23.66 23.66 0 0 1 96.566 60.61a21.94 21.94 0 0 1 3.737 16.614 20.6 20.6 0 0 1-9.286 13.781l-29.74 18.99a24.308 29.233 0 0 1-6.057 2.667z" style="stroke-width:.911885"/></symbol><symbol id="typescript" viewBox="0 0 128 128"><path fill="#fff" d="M22.67 47h99.67v73.67H22.67z"/><path fill="#007acc" d="M1.5 63.91v62.5h125v-125H1.5zm100.73-5a15.56 15.56 0 0 1 7.82 4.5 20.6 20.6 0 0 1 3 4c0 .16-5.4 3.81-8.69 5.85-.12.08-.6-.44-1.13-1.23a7.09 7.09 0 0 0-5.87-3.53c-3.79-.26-6.23 1.73-6.21 5a4.6 4.6 0 0 0 .54 2.34c.83 1.73 2.38 2.76 7.24 4.86 8.95 3.85 12.78 6.39 15.16 10 2.66 4 3.25 10.46 1.45 15.24-2 5.2-6.9 8.73-13.83 9.9a38.3 38.3 0 0 1-9.52-.1 23 23 0 0 1-12.72-6.63c-1.15-1.27-3.39-4.58-3.25-4.82a9 9 0 0 1 1.15-.73L82 101l3.59-2.08.75 1.11a16.8 16.8 0 0 0 4.74 4.54c4 2.1 9.46 1.81 12.16-.62a5.43 5.43 0 0 0 .69-6.92c-1-1.39-3-2.56-8.59-5-6.45-2.78-9.23-4.5-11.77-7.24a16.5 16.5 0 0 1-3.43-6.25 25 25 0 0 1-.22-8c1.33-6.23 6-10.58 12.82-11.87a31.7 31.7 0 0 1 9.49.26zm-29.34 5.24v5.12H56.66v46.23H45.15V69.26H28.88v-5a49 49 0 0 1 .12-5.17C29.08 59 39 59 51 59h21.83z" data-name="original"/></symbol><symbol id="esbuild" viewBox="0 0 200 200"><circle cx="100" cy="100" r="100" fill="#FFCF00"/><path fill="none" stroke="#191919" stroke-width="24" d="M47.5 52.5 95 100l-47.5 47.5m60-95L155 100l-47.5 47.5"/></symbol><symbol id="nodejs" viewBox="0 0 128 128"><path fill="url(#nodejs-a)" d="M66.958.825a6.07 6.07 0 0 0-6.035 0L11.103 29.76c-1.895 1.072-2.96 3.095-2.96 5.24v57.988c0 2.143 1.183 4.167 2.958 5.24l49.82 28.934a6.07 6.07 0 0 0 6.036 0l49.82-28.935c1.894-1.072 2.958-3.096 2.958-5.24V35c0-2.144-1.183-4.167-2.958-5.24z"/><path fill="url(#nodejs-b)" d="M116.897 29.76 66.841.825A8 8 0 0 0 65.302.23L9.21 96.798a6.3 6.3 0 0 0 1.657 1.43l50.057 28.934c1.42.833 3.076 1.072 4.615.595l52.66-96.925a3.7 3.7 0 0 0-1.302-1.072"/><path fill="url(#nodejs-c)" d="M116.898 98.225c1.42-.833 2.485-2.262 2.958-3.81L65.066.108c-1.42-.238-2.959-.119-4.26.715L11.104 29.639l53.606 98.355c.71-.12 1.54-.358 2.25-.715z"/><defs><linearGradient id="nodejs-a" x1="34.513" x2="27.157" y1="15.535" y2="30.448" gradientTransform="translate(-129.242 -73.715)scale(6.18523)" gradientUnits="userSpaceOnUse"><stop stop-color="#3F873F"/><stop offset=".33" stop-color="#3F8B3D"/><stop offset=".637" stop-color="#3E9638"/><stop offset=".934" stop-color="#3DA92E"/><stop offset="1" stop-color="#3DAE2B"/></linearGradient><linearGradient id="nodejs-b" x1="30.009" x2="50.533" y1="23.359" y2="8.288" gradientTransform="translate(-129.242 -73.715)scale(6.18523)" gradientUnits="userSpaceOnUse"><stop offset=".138" stop-color="#3F873F"/><stop offset=".402" stop-color="#52A044"/><stop offset=".713" stop-color="#64B749"/><stop offset=".908" stop-color="#6ABF4B"/></linearGradient><linearGradient id="nodejs-c" x1="21.917" x2="40.555" y1="22.261" y2="22.261" gradientTransform="translate(-129.242 -73.715)scale(6.18523)" gradientUnits="userSpaceOnUse"><stop offset=".092" stop-color="#6ABF4B"/><stop offset=".287" stop-color="#64B749"/><stop offset=".598" stop-color="#52A044"/><stop offset=".862" stop-color="#3F873F"/></linearGradient></defs></symbol><symbol id="npm" viewBox="0 0 128 128"><path fill="#cb3837" d="M2 38.5h124v43.71H64v7.29H36.44v-7.29H2zm6.89 36.43h13.78V53.07h6.89v21.86h6.89V45.79H8.89zm34.44-29.14v36.42h13.78v-7.28h13.78V45.79zm13.78 7.29H64v14.56h-6.89zm20.67-7.29v29.14h13.78V53.07h6.89v21.86h6.89V53.07h6.89v21.86h6.89V45.79z"/></symbol><symbol id="denojs" fill="currentColor" viewBox="0 0 128 128"><path d="M64 2C29.755 2 2 29.755 2 64s27.755 62 62 62 62-27.755 62-62S98.245 2 64 2m32.09 20.126.023-.073.799-3.003.363.266a53 53 0 0 1 4.771 3.997l-.097.314-.022.073a3.03 3.03 0 0 1-3.488 2.01 3.02 3.02 0 0 1-2.349-3.584m-13.853 5.716.023-.073c.46-1.55 2.107-2.47 3.705-2.059 1.574.436 2.519 2.059 2.131 3.657v.073l-3.245 11.988-.266-.218a32.3 32.3 0 0 0-5.11-3.1zM71.484 14.497l.023-.073 1.453-5.4.436.072c1.84.315 3.681.727 5.473 1.211l-1.526 5.691-.022.073a3.03 3.03 0 0 1-3.488 2.01 3.02 3.02 0 0 1-2.349-3.584M49.009 23.7l.023-.073 3.826-14.216.412-.072a58 58 0 0 1 5.764-.824c.097.436.097.92-.023 1.356l-.022.073-4.117 15.258-.023.073a3.03 3.03 0 0 1-3.488 2.01 3.02 3.02 0 0 1-2.349-3.584zM13.843 56.395c-.46 1.55-2.107 2.47-3.681 2.058a2.87 2.87 0 0 1-1.502-.92 55.5 55.5 0 0 1 6.467-20.295c.242 0 .484.023.726.097a3.04 3.04 0 0 1 2.156 3.657l-.023.073-4.117 15.258zm12.4 8.33v.074l-4.117 15.258-.023.072c-.46 1.526-2.034 2.422-3.608 2.059-1.623-.388-2.616-2.034-2.229-3.657v-.073L20.384 63.2l.022-.073c.46-1.55 2.107-2.47 3.706-2.058 1.574.436 2.519 2.058 2.131 3.657zm1.187-20.78c-1.623-.387-2.616-2.034-2.228-3.656l.022-.073 4.117-15.258.023-.073c.46-1.55 2.107-2.47 3.681-2.058a3.03 3.03 0 0 1 2.156 3.633l-.023.096-4.117 15.258-.023.073c-.46 1.526-2.034 2.422-3.608 2.059zm7.992 52.096-.023.072c-.46 1.526-2.034 2.422-3.608 2.06-1.623-.388-2.616-2.035-2.228-3.658l.022-.073 4.117-15.258.023-.097.194-.46a27.2 27.2 0 0 0 5.231 3.56zm12.473 9.324-.023.073-2.93 10.923-.412-.17a52 52 0 0 1-5.207-2.252l2.712-10.075.023-.073a3.01 3.01 0 0 1 3.681-2.058c1.599.412 2.543 2.034 2.156 3.633zm16.929-7.726-.073.34v.072l-4.117 15.258-.023.073a3.03 3.03 0 0 1-3.487 2.01 3.03 3.03 0 0 1-2.35-3.584v-.073l4.118-15.258.022-.073a3.026 3.026 0 0 1 3.706-2.059 2.98 2.98 0 0 1 1.889 1.526l.097.436.145.702.097.51zm40.276 3.948c-8.622 9.421-20.441 15.863-33.737 17.631l-.121-.8-.218-1.598-.194-1.162-.218-1.526-.29-1.865-.121-.726-.266-1.768-.17-1.042-.218-1.356-.218-1.308-.218-1.26-.218-1.234-.194-1.211-.218-1.163-.194-1.114-.145-.823-.17-.8-.096-.508-.194-1.017-.146-.727-.169-.896-.145-.63-.12-.605-.122-.581-.073-.388-.17-.726-.12-.533-.121-.533-.097-.339-.12-.484-.098-.46-.12-.46-.121-.437-.073-.266-.121-.412-.097-.387-.073-.266-.097-.243-.072-.218-.097-.339-.073-.242-.049-.145a9 9 0 0 0-.435-1.138l-.073-.145.557-1.454-2.204.073-.605.023c-20.006.412-32.915-8.09-32.915-21.409 0-14.12 14.047-25.478 32.066-25.478 8.67 0 16.105 2.398 21.966 6.975 4.989 3.9 8.646 9.276 10.535 15.355l.048.145.048.17.097.314.145.582.388 1.356.411 1.55.703 2.567 1.114 4.069 1.792 6.684 2.035 7.605 3.269 12.23 1.235 4.601zm3.052-60.595-.023.073-4.117 15.258-.023.073c-.46 1.525-2.034 2.421-3.609 2.058-1.622-.387-2.615-2.034-2.228-3.657l.023-.073 4.117-15.258v-.072a3.08 3.08 0 0 1 3.705-2.059 3.06 3.06 0 0 1 2.156 3.657zm10.414 20.344-4.142 15.258v.073c-.436 1.623-2.107 2.567-3.73 2.131s-2.567-2.107-2.13-3.73l.022-.072 4.117-15.258.023-.073c.46-1.55 2.107-2.47 3.681-2.059a3.03 3.03 0 0 1 2.156 3.633zM69.329 51.164a3.875 3.875 0 0 1-3.875 3.875 3.875 3.875 0 0 1-3.875-3.875 3.875 3.875 0 0 1 3.875-3.875 3.875 3.875 0 0 1 3.875 3.875"/></symbol><symbol id="cloudflareworkers" viewBox="0 0 128 128"><linearGradient id="cloudflareworkers-a" x1="-.556" x2="-.628" y1="128.705" y2="128.977" gradientTransform="matrix(155.9359 0 0 -364.3 119.128 47001.098)" gradientUnits="userSpaceOnUse"><stop offset="0" stop-color="#eb6f07"/><stop offset="1" stop-color="#fab743"/></linearGradient><path fill="url(#cloudflareworkers-a)" d="M33.882 9.694 48.491 36.05 35.075 60.199a7.75 7.75 0 0 0 0 7.543l13.416 24.209-14.609 26.356a15.5 15.5 0 0 1-6.559-6.172L4.068 71.737a15.56 15.56 0 0 1 0-15.503l23.255-40.398a15.5 15.5 0 0 1 6.559-6.142"/><linearGradient id="cloudflareworkers-b" x1="-.594" x2="-.715" y1="129.358" y2="129.519" gradientTransform="matrix(149.7049 0 0 -194.8 131.59 25305.098)" gradientUnits="userSpaceOnUse"><stop offset="0" stop-color="#d96504"/><stop offset="1" stop-color="#d96504" stop-opacity="0"/></linearGradient><path fill="url(#cloudflareworkers-b)" d="M35.075 60.229a7.75 7.75 0 0 0 0 7.513l13.416 24.209-14.609 26.356a15.5 15.5 0 0 1-6.559-6.172L4.068 71.737c-1.848-3.19 8.497-7.006 31.007-11.478z" opacity=".7"/><linearGradient id="cloudflareworkers-c" x1="-2.234" x2="-2.109" y1="128.901" y2="128.689" gradientTransform="matrix(95.8 0 0 -101.1 239.4 13048.3)" gradientUnits="userSpaceOnUse"><stop offset="0" stop-color="#eb6f07"/><stop offset="1" stop-color="#eb720a" stop-opacity="0"/></linearGradient><path fill="url(#cloudflareworkers-c)" d="m35.373 12.347 13.118 23.702-2.176 3.786-11.568-19.587c-3.339-5.456-8.437-2.624-14.818 8.408l.954-1.64 6.44-11.18a15.5 15.5 0 0 1 6.499-6.142l1.521 2.653z" opacity=".5"/><linearGradient id="cloudflareworkers-d" x1="-.847" x2="-.919" y1="128.688" y2="128.96" gradientTransform="matrix(207.975 0 0 -375 275.025 48376)" gradientUnits="userSpaceOnUse"><stop offset="0" stop-color="#ee6f05"/><stop offset="1" stop-color="#fab743"/></linearGradient><path fill="url(#cloudflareworkers-d)" d="m100.665 15.835 23.255 40.398a15.49 15.49 0 0 1 0 15.503l-23.255 40.398a15.5 15.5 0 0 1-13.416 7.752H63.994l28.92-52.145a7.75 7.75 0 0 0 0-7.513L63.994 8.084h23.255a15.5 15.5 0 0 1 13.416 7.751"/><linearGradient id="cloudflareworkers-e" x1="-2.602" x2="-2.229" y1="128.679" y2="128.977" gradientTransform="matrix(118.9101 0 0 -375.1 361.09 48388.902)" gradientUnits="userSpaceOnUse"><stop offset="0" stop-color="#d96504" stop-opacity=".8"/><stop offset=".498" stop-color="#d96504" stop-opacity=".2"/><stop offset="1" stop-color="#d96504" stop-opacity="0"/></linearGradient><path fill="url(#cloudflareworkers-e)" d="m86.057 119.708-22.957.208 27.787-52.413a8.05 8.05 0 0 0 0-7.573L63.1 8.084h5.247l29.158 51.608a8.05 8.05 0 0 1-.03 7.99 4670 4670 0 0 0-18.693 32.796c-5.665 9.957-3.22 16.367 7.275 19.23"/><linearGradient id="cloudflareworkers-f" x1="-.561" x2="-.634" y1="128.688" y2="128.96" gradientTransform="matrix(201.2571 0 0 -375 180.743 48376)" gradientUnits="userSpaceOnUse"><stop offset="0" stop-color="#ffa95f"/><stop offset="1" stop-color="#ffebc8"/></linearGradient><path fill="url(#cloudflareworkers-f)" d="M40.739 119.886c-2.385 0-4.77-.566-6.857-1.58l28.681-51.727a5.35 5.35 0 0 0 0-5.188L33.882 9.694a15.5 15.5 0 0 1 6.857-1.61h23.255l28.92 52.145a7.75 7.75 0 0 1 0 7.513l-28.92 52.145H40.739z"/><linearGradient id="cloudflareworkers-g" x1="-2.816" x2="-2.552" y1="128.861" y2="128.719" gradientTransform="matrix(109.2571 0 0 -375 364.743 48376)" gradientUnits="userSpaceOnUse"><stop offset="0" stop-color="#fff" stop-opacity=".5"/><stop offset="1" stop-color="#fff" stop-opacity=".1"/></linearGradient><path fill="url(#cloudflareworkers-g)" d="M90.886 61.391 61.311 8.084h2.683l28.92 52.145a7.75 7.75 0 0 1 0 7.513l-28.92 52.145h-2.683l29.576-53.308a5.35 5.35 0 0 0-.001-5.188" opacity=".6"/><linearGradient id="cloudflareworkers-h" x1="-2.34" x2="-2.001" y1="128.779" y2="128.952" gradientTransform="matrix(107.2571 0 0 -371.4 274.743 47913.2)" gradientUnits="userSpaceOnUse"><stop offset="0" stop-color="#fff" stop-opacity=".5"/><stop offset="1" stop-color="#fff" stop-opacity=".1"/></linearGradient><path fill="url(#cloudflareworkers-h)" d="M62.563 61.391 33.882 9.694c.894-.477 1.968-.835 2.981-1.133 6.321 11.359 15.652 28.592 28.025 51.668a7.75 7.75 0 0 1 0 7.513L36.416 119.29c-1.014-.298-1.55-.507-2.504-.954l28.622-51.727a5.35 5.35 0 0 0 0-5.188z" opacity=".6"/></symbol><symbol id="firebase" viewBox="0 0 128 128"><path fill="#ffa000" d="M17.474 103.276 33.229 2.462a2.91 2.91 0 0 1 5.44-.924l16.294 30.39 6.494-12.366a2.91 2.91 0 0 1 5.15 0l43.97 83.714z"/><path fill="#f57c00" d="M71.903 64.005 54.955 31.913l-37.481 71.363Z"/><path fill="#ffca28" d="M110.577 103.276 98.51 28.604a2.91 2.91 0 0 0-1.984-2.286 2.91 2.91 0 0 0-2.94.714l-76.112 76.243 42.115 23.618a8.73 8.73 0 0 0 8.51 0l42.478-23.618Z"/><path fill="#fff" fill-opacity=".2" d="M98.51 28.604a2.91 2.91 0 0 0-1.984-2.286 2.91 2.91 0 0 0-2.94.713L78.479 42.178 66.6 19.562a2.91 2.91 0 0 0-5.15 0l-6.494 12.365L38.662 1.538A2.91 2.91 0 0 0 35.605.044a2.91 2.91 0 0 0-2.384 2.425L17.474 103.276h-.051l.05.058.415.204 75.676-75.764a2.91 2.91 0 0 1 4.932 1.571l11.965 74.003.116-.073zm-80.898 74.534L33.228 3.182A2.91 2.91 0 0 1 35.613.756a2.91 2.91 0 0 1 3.057 1.495l16.292 30.39 6.495-12.366a2.91 2.91 0 0 1 5.15 0L78.245 42.41 17.61 103.138Z"/><path fill="#a52714" d="M68.099 126.18a8.73 8.73 0 0 1-8.51 0l-42.015-23.55-.102.647 42.115 23.61a8.73 8.73 0 0 0 8.51 0l42.48-23.61-.11-.67-42.37 23.575z" opacity=".2"/></symbol><symbol id="tailwindcss" viewBox="0 0 128 128"><path fill="#38bdf8" d="M64.004 25.602c-17.067 0-27.73 8.53-32 25.597 6.398-8.531 13.867-11.73 22.398-9.597 4.871 1.214 8.352 4.746 12.207 8.66C72.883 56.629 80.145 64 96.004 64c17.066 0 27.73-8.531 32-25.602q-9.6 12.803-22.399 9.602c-4.87-1.215-8.347-4.746-12.207-8.66-6.27-6.367-13.53-13.738-29.394-13.738M32.004 64c-17.066 0-27.73 8.531-32 25.602Q9.603 76.799 22.402 80c4.871 1.215 8.352 4.746 12.207 8.66 6.274 6.367 13.536 13.738 29.395 13.738 17.066 0 27.73-8.53 32-25.597q-9.6 12.797-22.399 9.597c-4.87-1.214-8.347-4.746-12.207-8.66C55.128 71.371 47.868 64 32.004 64m0 0"/></symbol><symbol id="pwa" viewBox="0 0 1952 734.93"><g stroke-linejoin="round" stroke-width=".2"><path fill="#3D3D3D" d="m1436.62 603.304 56.39-142.599h162.82l-77.27-216.315L1675.2 0 1952 734.934h-204.13l-47.3-131.629z"/><path fill="#5A0FC8" d="M1262.47 734.935 1558.79.002h-196.45l-202.7 474.931L1015.5.003H864.499l-154.768 474.93-109.146-216.416-98.773 304.302 100.284 172.116h193.331l139.857-425.91 133.346 425.91z"/><path fill="#3D3D3D" d="M186.476 482.643h121.003q54.981 0 97.917-12.273l31.293-96.408 87.459-269.446q-9.996-15.844-22.824-29.96Q433.967 0 304.222 0H0v734.933h186.476zm160.166-313.564q26.31 26.479 26.309 70.871 0 44.733-23.138 70.956-25.366 29.137-93.409 29.137h-69.928V142.598h70.442q63.415 0 89.724 26.481"/></g></symbol><symbol id="android" viewBox="0 0 128 128"><path fill="#fff" d="M21.012 91.125c-5.538.003-10.038-4.503-10.039-10.04l-.002-30.739c-.002-5.532 4.497-10.037 10.028-10.038 2.689-.002 5.207 1.041 7.105 2.937s2.942 4.418 2.944 7.099l-.003 30.74a9.92 9.92 0 0 1-2.931 7.094 9.96 9.96 0 0 1-7.102 2.947m-.008-48.12c-4.053-.002-7.338 3.291-7.339 7.341l.005 30.736a7.347 7.347 0 0 0 7.341 7.348 7.34 7.34 0 0 0 7.339-7.347V50.342a7.345 7.345 0 0 0-7.346-7.337"/><path fill="#fff" d="m99.742 44.527-2.698-.001-66.119.009-2.699.001-.002-2.699c-.006-11.08 6.03-21.385 15.917-27.473l-3.844-7.017c-.47-.822-.588-1.863-.314-2.815a3.73 3.73 0 0 1 1.814-2.239 3.6 3.6 0 0 1 1.759-.447c1.362 0 2.609.739 3.267 1.933l4.023 7.329a37.8 37.8 0 0 1 13.099-2.305c4.606-.002 9.023.777 13.204 2.311l4.017-7.341a3.71 3.71 0 0 1 3.263-1.932 3.7 3.7 0 0 1 1.761.438A3.7 3.7 0 0 1 88 4.524a3.7 3.7 0 0 1-.318 2.832l-3.842 7.013c9.871 6.101 15.9 16.398 15.899 27.459zM80.196 15.403l5.123-9.355a1.019 1.019 0 1 0-1.783-.981l-5.176 9.45c-4.354-1.934-9.229-3.021-14.382-3.016-5.142-.005-10.008 1.078-14.349 3.005l-5.181-9.429a1.01 1.01 0 0 0-1.379-.405c-.497.266-.68.891-.403 1.379l5.125 9.348c-10.07 5.194-16.874 15.084-16.868 26.439l66.118-.008c.003-11.351-6.789-21.221-16.845-26.427M48.94 29.86a2.772 2.772 0 0 1 .003-5.545 2.78 2.78 0 0 1 2.775 2.774 2.775 2.775 0 0 1-2.778 2.771m30.107-.006a2.767 2.767 0 0 1-2.772-2.771 2.79 2.79 0 0 1 2.773-2.778 2.79 2.79 0 0 1 2.767 2.779 2.77 2.77 0 0 1-2.768 2.77m-27.336 96.305c-5.533-.001-10.036-4.501-10.037-10.038l-.002-13.567-2.638.003a10.45 10.45 0 0 1-7.448-3.082 10.44 10.44 0 0 1-3.083-7.452l-.01-47.627v-2.701h2.699l65.623-.01 2.7-.002v2.699l.007 47.633c.001 5.809-4.725 10.536-10.532 10.535l-2.654.002.003 13.562c0 5.534-4.502 10.039-10.033 10.039a9.93 9.93 0 0 1-7.098-2.937 9.95 9.95 0 0 1-2.947-7.096v-13.568H61.75v13.565c-.002 5.535-4.503 10.043-10.039 10.042"/><path fill="#fff" d="M31.205 92.022a7.82 7.82 0 0 0 7.831 7.837h5.333l.006 16.264c-.001 4.05 3.289 7.341 7.335 7.342a7.34 7.34 0 0 0 7.338-7.348l.001-16.259 9.909-.003-.001 16.263c.004 4.051 3.298 7.346 7.343 7.338 4.056.003 7.344-3.292 7.343-7.344l-.005-16.259 5.353-.001c4.319.001 7.832-3.508 7.832-7.837l-.009-47.635-65.621.012zm75.791-.91c-5.536.001-10.039-4.498-10.038-10.036l-.008-30.738c.002-5.537 4.498-10.041 10.031-10.041 5.54-.001 10.046 4.502 10.045 10.038l.003 30.736c.001 5.534-4.498 10.042-10.033 10.041m-.01-48.116c-4.053-.004-7.337 3.287-7.337 7.342l.003 30.737a7.336 7.336 0 0 0 7.342 7.34 7.34 7.34 0 0 0 7.338-7.343l-.008-30.736a7.335 7.335 0 0 0-7.338-7.34"/><path fill="#A4C439" d="M21.004 43.005c-4.053-.002-7.338 3.291-7.339 7.341l.005 30.736a7.34 7.34 0 0 0 7.342 7.343 7.33 7.33 0 0 0 7.338-7.342V50.342a7.345 7.345 0 0 0-7.346-7.337m59.192-27.602 5.123-9.355a1.023 1.023 0 0 0-.401-1.388 1.02 1.02 0 0 0-1.382.407l-5.175 9.453c-4.354-1.938-9.227-3.024-14.383-3.019-5.142-.005-10.013 1.078-14.349 3.005l-5.181-9.429a1.01 1.01 0 0 0-1.378-.406 1.007 1.007 0 0 0-.404 1.38l5.125 9.349c-10.07 5.193-16.874 15.083-16.868 26.438l66.118-.008c.003-11.351-6.789-21.221-16.845-26.427M48.94 29.86a2.772 2.772 0 0 1 .003-5.545 2.78 2.78 0 0 1 2.775 2.774 2.775 2.775 0 0 1-2.778 2.771m30.107-.006a2.77 2.77 0 0 1-2.772-2.771 2.793 2.793 0 0 1 2.773-2.778 2.79 2.79 0 0 1 2.767 2.779 2.767 2.767 0 0 1-2.768 2.77M31.193 44.392l.011 47.635a7.82 7.82 0 0 0 7.832 7.831l5.333.002.006 16.264c-.001 4.05 3.291 7.342 7.335 7.342 4.056 0 7.342-3.295 7.343-7.347l-.004-16.26 9.909-.003.004 16.263c0 4.047 3.293 7.346 7.338 7.338 4.056.003 7.344-3.292 7.343-7.344l-.005-16.259 5.352-.004a7.835 7.835 0 0 0 7.836-7.834l-.009-47.635zm83.134 5.943a7.34 7.34 0 0 0-7.341-7.339c-4.053-.004-7.337 3.287-7.337 7.342l.006 30.738a7.334 7.334 0 0 0 7.339 7.339 7.337 7.337 0 0 0 7.338-7.343z"/></symbol><symbol id="postgresql" viewBox="0 0 128 128"><path d="M93.809 92.112c.785-6.533.55-7.492 5.416-6.433l1.235.108c3.742.17 8.637-.602 11.513-1.938 6.191-2.873 9.861-7.668 3.758-6.409-13.924 2.873-14.881-1.842-14.881-1.842 14.703-21.815 20.849-49.508 15.543-56.287-14.47-18.489-39.517-9.746-39.936-9.52l-.134.025c-2.751-.571-5.83-.912-9.289-.968-6.301-.104-11.082 1.652-14.709 4.402 0 0-44.683-18.409-42.604 23.151.442 8.841 12.672 66.898 27.26 49.362 5.332-6.412 10.484-11.834 10.484-11.834 2.558 1.699 5.622 2.567 8.834 2.255l.249-.212c-.078.796-.044 1.575.099 2.497-3.757 4.199-2.653 4.936-10.166 6.482-7.602 1.566-3.136 4.355-.221 5.084 3.535.884 11.712 2.136 17.238-5.598l-.22.882c1.474 1.18 1.375 8.477 1.583 13.69.209 5.214.558 10.079 1.621 12.948s2.317 10.256 12.191 8.14c8.252-1.764 14.561-4.309 15.136-27.985"/><path d="M75.458 125.256c-4.367 0-7.211-1.689-8.938-3.32-2.607-2.46-3.641-5.629-4.259-7.522l-.267-.79c-1.244-3.358-1.666-8.193-1.916-14.419-.038-.935-.064-1.898-.093-2.919-.021-.747-.047-1.684-.085-2.664a18.8 18.8 0 0 1-4.962 1.568c-3.079.526-6.389.356-9.84-.507-2.435-.609-4.965-1.871-6.407-3.82-4.203 3.681-8.212 3.182-10.396 2.453-3.853-1.285-7.301-4.896-10.542-11.037-2.309-4.375-4.542-10.075-6.638-16.943-3.65-11.96-5.969-24.557-6.175-28.693C4.292 23.698 7.777 14.44 15.296 9.129 27.157.751 45.128 5.678 51.68 7.915c4.402-2.653 9.581-3.944 15.433-3.851 3.143.051 6.136.327 8.916.823 2.9-.912 8.628-2.221 15.185-2.139 12.081.144 22.092 4.852 28.949 13.615 4.894 6.252 2.474 19.381.597 26.651-2.642 10.226-7.271 21.102-12.957 30.57 1.544.011 3.781-.174 6.961-.831 6.274-1.295 8.109 2.069 8.607 3.575 1.995 6.042-6.677 10.608-9.382 11.864-3.466 1.609-9.117 2.589-13.745 2.377l-.202-.013-1.216-.107-.12 1.014-.116.991c-.311 11.999-2.025 19.598-5.552 24.619-3.697 5.264-8.835 6.739-13.361 7.709-1.544.33-2.947.474-4.219.474m-9.19-43.671c2.819 2.256 3.066 6.501 3.287 14.434.028.99.054 1.927.089 2.802.106 2.65.355 8.855 1.327 11.477.137.371.26.747.39 1.146 1.083 3.316 1.626 4.979 6.309 3.978 3.931-.843 5.952-1.599 7.534-3.851 2.299-3.274 3.585-9.86 3.821-19.575l4.783.116-4.75-.57.14-1.186c.455-3.91.783-6.734 3.396-8.602 2.097-1.498 4.486-1.353 6.389-1.01-2.091-1.58-2.669-3.433-2.823-4.193l-.399-1.965 1.121-1.663c6.457-9.58 11.781-21.354 14.609-32.304 2.906-11.251 2.02-17.226 1.134-18.356-11.729-14.987-32.068-8.799-34.192-8.097l-.359.194-1.8.335-.922-.191c-2.542-.528-5.366-.82-8.393-.869-4.756-.08-8.593 1.044-11.739 3.431l-2.183 1.655-2.533-1.043c-5.412-2.213-21.308-6.662-29.696-.721-4.656 3.298-6.777 9.76-6.305 19.207.156 3.119 2.275 14.926 5.771 26.377 4.831 15.825 9.221 21.082 11.054 21.693.32.108 1.15-.537 1.976-1.529a271 271 0 0 1 10.694-12.07l2.77-2.915 3.349 2.225c1.35.897 2.839 1.406 4.368 1.502l7.987-6.812-1.157 11.808c-.026.265-.039.626.065 1.296l.348 2.238-1.51 1.688-.174.196 4.388 2.025z"/><path fill="#336791" d="M115.731 77.44c-13.925 2.873-14.882-1.842-14.882-1.842 14.703-21.816 20.849-49.51 15.545-56.287C101.924.823 76.875 9.566 76.457 9.793l-.135.024c-2.751-.571-5.83-.911-9.291-.967-6.301-.103-11.08 1.652-14.707 4.402 0 0-44.684-18.408-42.606 23.151.442 8.842 12.672 66.899 27.26 49.363 5.332-6.412 10.483-11.834 10.483-11.834 2.559 1.699 5.622 2.567 8.833 2.255l.25-.212c-.078.796-.042 1.575.1 2.497-3.758 4.199-2.654 4.936-10.167 6.482-7.602 1.566-3.136 4.355-.22 5.084 3.534.884 11.712 2.136 17.237-5.598l-.221.882c1.473 1.18 2.507 7.672 2.334 13.557s-.29 9.926.871 13.082c1.16 3.156 2.316 10.256 12.192 8.14 8.252-1.768 12.528-6.351 13.124-13.995.422-5.435 1.377-4.631 1.438-9.49l.767-2.3c.884-7.367.14-9.743 5.225-8.638l1.235.108c3.742.17 8.639-.602 11.514-1.938 6.19-2.871 9.861-7.667 3.758-6.408"/><path fill="#fff" d="M75.957 122.307c-8.232 0-10.84-6.519-11.907-9.185-1.562-3.907-1.899-19.069-1.551-31.503a1.59 1.59 0 0 1 1.64-1.55 1.594 1.594 0 0 1 1.55 1.639c-.401 14.341.168 27.337 1.324 30.229 1.804 4.509 4.54 8.453 12.275 6.796 7.343-1.575 10.093-4.359 11.318-11.46.94-5.449 2.799-20.951 3.028-24.01a1.593 1.593 0 0 1 1.71-1.472 1.597 1.597 0 0 1 1.472 1.71c-.239 3.185-2.089 18.657-3.065 24.315-1.446 8.387-5.185 12.191-13.794 14.037-1.463.313-2.792.453-4 .454M31.321 90.466a6.7 6.7 0 0 1-2.116-.35c-5.347-1.784-10.44-10.492-15.138-25.885-3.576-11.717-5.842-23.947-6.041-27.922-.589-11.784 2.445-20.121 9.02-24.778 13.007-9.216 34.888-.44 35.813-.062a1.596 1.596 0 0 1-1.207 2.955c-.211-.086-21.193-8.492-32.768-.285-5.622 3.986-8.203 11.392-7.672 22.011.167 3.349 2.284 15.285 5.906 27.149 4.194 13.742 8.967 22.413 13.096 23.79.648.216 2.62.873 5.439-2.517A245 245 0 0 1 45.88 73.046a1.596 1.596 0 0 1 2.304 2.208c-.048.05-4.847 5.067-10.077 11.359-2.477 2.979-4.851 3.853-6.786 3.853m69.429-13.445a1.596 1.596 0 0 1-1.322-2.487c14.863-22.055 20.08-48.704 15.612-54.414-5.624-7.186-13.565-10.939-23.604-11.156-7.433-.16-13.341 1.738-14.307 2.069l-.243.099c-.971.305-1.716-.227-1.997-.849a1.6 1.6 0 0 1 .631-2.025c.046-.027.192-.089.429-.176l-.021.006.021-.007c1.641-.601 7.639-2.4 15.068-2.315 11.108.118 20.284 4.401 26.534 12.388 2.957 3.779 2.964 12.485.019 23.887-3.002 11.625-8.651 24.118-15.497 34.277-.306.457-.81.703-1.323.703m.76 10.21c-2.538 0-4.813-.358-6.175-1.174-1.4-.839-1.667-1.979-1.702-2.584-.382-6.71 3.32-7.878 5.208-8.411-.263-.398-.637-.866-1.024-1.349-1.101-1.376-2.609-3.26-3.771-6.078-.182-.44-.752-1.463-1.412-2.648-3.579-6.418-11.026-19.773-6.242-26.612 2.214-3.165 6.623-4.411 13.119-3.716C97.6 28.837 88.5 10.625 66.907 10.271c-6.494-.108-11.82 1.889-15.822 5.93-8.96 9.049-8.636 25.422-8.631 25.586a1.595 1.595 0 1 1-3.19.084c-.02-.727-.354-17.909 9.554-27.916C53.455 9.272 59.559 6.96 66.96 7.081c13.814.227 22.706 7.25 27.732 13.101 5.479 6.377 8.165 13.411 8.386 15.759.165 1.746-1.088 2.095-1.341 2.147l-.576.013c-6.375-1.021-10.465-.312-12.156 2.104-3.639 5.201 3.406 17.834 6.414 23.229.768 1.376 1.322 2.371 1.576 2.985.988 2.396 2.277 4.006 3.312 5.3.911 1.138 1.7 2.125 1.982 3.283.131.23 1.99 2.98 13.021.703 2.765-.57 4.423-.083 4.93 1.45.997 3.015-4.597 6.532-7.694 7.97-2.775 1.29-7.204 2.106-11.036 2.106m-4.696-4.021c.35.353 2.101.962 5.727.806 3.224-.138 6.624-.839 8.664-1.786 2.609-1.212 4.351-2.567 5.253-3.492l-.5.092c-7.053 1.456-12.042 1.262-14.828-.577a6 6 0 0 1-.54-.401c-.302.119-.581.197-.78.253-1.58.443-3.214.902-2.996 5.105m-45.562 8.915c-1.752 0-3.596-.239-5.479-.71-1.951-.488-5.24-1.957-5.19-4.37.057-2.707 3.994-3.519 5.476-3.824 5.354-1.103 5.703-1.545 7.376-3.67.488-.619 1.095-1.39 1.923-2.314 1.229-1.376 2.572-2.073 3.992-2.073.989 0 1.8.335 2.336.558 1.708.708 3.133 2.42 3.719 4.467.529 1.847.276 3.625-.71 5.006-3.237 4.533-7.886 6.93-13.443 6.93m-7.222-4.943c.481.372 1.445.869 2.518 1.137 1.631.408 3.213.615 4.705.615 4.546 0 8.196-1.882 10.847-5.594.553-.774.387-1.757.239-2.274-.31-1.083-1.08-2.068-1.873-2.397-.43-.178-.787-.314-1.115-.314-.176 0-.712 0-1.614 1.009a41 41 0 0 0-1.794 2.162c-2.084 2.646-3.039 3.544-9.239 4.821-1.513.31-2.289.626-2.674.835m12.269-7.36a1.596 1.596 0 0 1-1.575-1.354 8 8 0 0 1-.08-.799c-4.064-.076-7.985-1.82-10.962-4.926-3.764-3.927-5.477-9.368-4.699-14.927.845-6.037.529-11.366.359-14.229-.047-.796-.081-1.371-.079-1.769.003-.505.013-1.844 4.489-4.113 1.592-.807 4.784-2.215 8.271-2.576 5.777-.597 9.585 1.976 10.725 7.246 3.077 14.228.244 20.521-1.825 25.117-.385.856-.749 1.664-1.04 2.447l-.257.69c-1.093 2.931-2.038 5.463-1.748 7.354a1.595 1.595 0 0 1-1.335 1.819zM42.464 42.26l.062 1.139c.176 2.974.504 8.508-.384 14.86-.641 4.585.759 9.06 3.843 12.276 2.437 2.542 5.644 3.945 8.94 3.945h.068c.369-1.555.982-3.197 1.642-4.966l.255-.686c.329-.884.714-1.74 1.122-2.646 1.991-4.424 4.47-9.931 1.615-23.132-.565-2.615-1.936-4.128-4.189-4.627-4.628-1.022-11.525 2.459-12.974 3.837m9.63-.677c-.08.564 1.033 2.07 2.485 2.271 1.449.203 2.689-.975 2.768-1.539s-1.033-1.186-2.485-1.388-2.691.092-2.768.656m2.818 2.826-.407-.028c-.9-.125-1.81-.692-2.433-1.518-.219-.29-.576-.852-.505-1.354.101-.736.999-1.177 2.4-1.177.313 0 .639.023.967.069.766.106 1.477.327 2.002.62.91.508.977 1.075.936 1.368-.112.813-1.405 2.02-2.96 2.02m-2.289-2.732c.045.348.907 1.496 2.029 1.651l.261.018c1.036 0 1.81-.815 1.901-1.082-.096-.182-.762-.634-2.025-.81a6 6 0 0 0-.821-.059c-.812 0-1.243.183-1.345.282m43.605-1.245c.079.564-1.033 2.07-2.484 2.272-1.45.202-2.691-.975-2.771-1.539-.076-.564 1.036-1.187 2.486-1.388 1.45-.203 2.689.092 2.769.655m-2.819 2.56c-1.396 0-2.601-1.086-2.7-1.791-.115-.846 1.278-1.489 2.712-1.688.316-.044.629-.066.93-.066 1.238 0 2.058.363 2.14.949.053.379-.238.964-.739 1.492-.331.347-1.026.948-1.973 1.079zm.943-3.013q-.416 0-.856.061c-1.441.201-2.301.779-2.259 1.089.048.341.968 1.332 2.173 1.332l.297-.021c.787-.109 1.378-.623 1.66-.919.443-.465.619-.903.598-1.052-.028-.198-.56-.49-1.613-.49m3.965 32.843a1.594 1.594 0 0 1-1.324-2.483c3.398-5.075 2.776-10.25 2.175-15.255-.257-2.132-.521-4.337-.453-6.453.07-2.177.347-3.973.614-5.71.317-2.058.617-4.002.493-6.31a1.595 1.595 0 1 1 3.186-.172c.142 2.638-.197 4.838-.525 6.967-.253 1.643-.515 3.342-.578 5.327-.061 1.874.178 3.864.431 5.97.64 5.322 1.365 11.354-2.691 17.411a1.6 1.6 0 0 1-1.328.708"/></symbol><symbol id="mysql" viewBox="0 0 128 128"><path fill="#00618A" d="M117.688 98.242c-6.973-.191-12.297.461-16.852 2.379-1.293.547-3.355.559-3.566 2.18.711.746.82 1.859 1.387 2.777 1.086 1.754 2.922 4.113 4.559 5.352 1.789 1.348 3.633 2.793 5.551 3.961 3.414 2.082 7.223 3.27 10.504 5.352 1.938 1.23 3.859 2.777 5.75 4.164.934.684 1.563 1.75 2.773 2.18v-.195c-.637-.812-.801-1.93-1.387-2.777l-2.578-2.578c-2.52-3.344-5.719-6.281-9.117-8.719-2.711-1.949-8.781-4.578-9.91-7.73l-.199-.199c1.922-.219 4.172-.914 5.949-1.391 2.98-.797 5.645-.59 8.719-1.387l4.164-1.187v-.793c-1.555-1.594-2.664-3.707-4.359-5.152-4.441-3.781-9.285-7.555-14.273-10.703-2.766-1.746-6.184-2.883-9.117-4.363-.988-.496-2.719-.758-3.371-1.586-1.539-1.961-2.379-4.449-3.566-6.738-2.488-4.793-4.93-10.023-7.137-15.066-1.504-3.437-2.484-6.828-4.359-9.91-9-14.797-18.687-23.73-33.695-32.508-3.195-1.867-7.039-2.605-11.102-3.57l-6.543-.395c-1.332-.555-2.715-2.184-3.965-2.977C16.977 3.52 4.223-3.312.539 5.672-1.785 11.34 4.016 16.871 6.09 19.746c1.457 2.012 3.32 4.273 4.359 6.539.688 1.492.805 2.984 1.391 4.559 1.438 3.883 2.695 8.109 4.559 11.695.941 1.816 1.98 3.727 3.172 5.352.727.996 1.98 1.438 2.18 2.973-1.227 1.715-1.297 4.375-1.984 6.543-3.098 9.77-1.926 21.91 2.578 29.137 1.383 2.223 4.641 6.98 9.117 5.156 3.918-1.598 3.043-6.539 4.164-10.902.254-.988.098-1.715.594-2.379v.199l3.57 7.133c2.641 4.254 7.324 8.699 11.297 11.699 2.059 1.555 3.68 4.242 6.344 5.152v-.199h-.199c-.516-.805-1.324-1.137-1.98-1.781-1.551-1.523-3.277-3.414-4.559-5.156-3.613-4.902-6.805-10.27-9.711-15.855-1.391-2.668-2.598-5.609-3.77-8.324-.453-1.047-.445-2.633-1.387-3.172-1.281 1.988-3.172 3.598-4.164 5.945-1.582 3.754-1.789 8.336-2.375 13.082-.348.125-.195.039-.398.199-2.762-.668-3.73-3.508-4.758-5.949-2.594-6.164-3.078-16.09-.793-23.191.59-1.836 3.262-7.617 2.18-9.316-.516-1.691-2.219-2.672-3.172-3.965-1.18-1.598-2.355-3.703-3.172-5.551-2.125-4.805-3.113-10.203-5.352-15.062-1.07-2.324-2.875-4.676-4.359-6.738-1.645-2.289-3.484-3.977-4.758-6.742-.453-.984-1.066-2.559-.398-3.566.215-.684.516-.969 1.191-1.191 1.148-.887 4.352.297 5.547.793 3.18 1.32 5.832 2.578 8.527 4.363 1.289.855 2.598 2.512 4.16 2.973h1.785c2.789.641 5.914.195 8.523.988 4.609 1.402 8.738 3.582 12.488 5.949 11.422 7.215 20.766 17.48 27.156 29.734 1.027 1.973 1.473 3.852 2.379 5.945 1.824 4.219 4.125 8.559 5.941 12.688 1.816 4.113 3.582 8.27 6.148 11.695 1.348 1.801 6.551 2.766 8.918 3.766 1.66.699 4.379 1.43 5.949 2.379 3 1.809 5.906 3.965 8.723 5.945 1.402.992 5.73 3.168 5.945 4.957zm-88.605-75.52c-1.453-.027-2.48.156-3.566.395v.199h.195c.695 1.422 1.918 2.34 2.777 3.566l1.98 4.164.199-.195c1.227-.867 1.789-2.25 1.781-4.363-.492-.52-.562-1.164-.992-1.785-.562-.824-1.66-1.289-2.375-1.98zm0 0"/></symbol><symbol id="django" fill="currentColor" viewBox="0 0 128 128"><path d="M59.448 0h20.93v96.88c-10.737 2.04-18.62 2.855-27.181 2.855-25.551-.001-38.87-11.551-38.87-33.705 0-21.338 14.135-35.2 36.015-35.2 3.398 0 5.98.272 9.106 1.087zm0 48.765c-2.446-.815-4.485-1.086-7.067-1.086-10.6 0-16.717 6.523-16.717 17.939 0 11.145 5.845 17.26 16.582 17.26 2.309 0 4.212-.136 7.202-.542z"/><path d="M113.672 32.321V80.84c0 16.717-1.224 24.735-4.893 31.666-3.398 6.661-7.883 10.873-17.124 15.494l-19.435-9.241c9.242-4.35 13.726-8.153 16.58-14 2.99-5.979 3.943-12.91 3.943-31.122V32.321zM92.742.111h20.93v21.474h-20.93z"/></symbol><symbol id="flask" viewBox="0 0 128 128"><path fill="currentColor" d="M44.44 100.63c-4.23-3.33-8.74-6.52-11.83-11.01-6.49-7.92-11.49-17.1-14.9-26.74-2.07-6.27-2.77-12.99-5.44-19.02-2.78-4.38.48-9.16 5.27-10.55 2.13-.41 5.89-2.43 1.36-.98-4.06 2.98-4.45-2.71-.29-3.07 2.84-.38 3.89-2.7 2.92-4.8-3.05-1.99 7.4-4.18 2.14-7.15-5.48-5.91 7.66-7.05 4.42-.33-.77 5.16 9.18-.95 6.87 5.01 2.35 2.86 8.8.65 8.63 4.67 3.42.24 4.6 3.11 7.8 3.33 3.33 1.5 9.36 2.69 10.49 6.44-3.3 2.61-10.95-5.4-11.31 1.84 1 10.69.74 21.7 4.65 31.88 1.85 6.16 6.33 11.01 10.38 15.81 3.88 4.7 9.12 8.01 14.48 10.8 4.69 2.21 9.75 3.68 14.87 4.6 2.07-1.59 5.74-7.48 8.97-5 .16 2.8-6.42 5.84-.31 5.54 3.59-1.08 6.08 2.77 9.04-.71 2.72 3.23 11.32-2.06 9.38 4.53-2.62 1.69-6.44.67-9.07 3-4.33-2.16-7.77 1.93-12.56 1.42-5.32.95-10.73 1.34-16.13 1.34-8.85-.7-17.89-.99-26.3-4.07-4.74-1.38-9.37-4.08-13.53-6.78m7.47 3.24c4.63 2 9.16 4.11 14.23 4.75 8.05 1.12 16.37 2.84 24.45 1.27-3.66-1.65-7.44.64-11.08-1.18-4.37.94-9.06-.24-13.5-.82-5.05-2.25-10.5-3.8-15.23-6.72-5.91-2.16 3.06 2.77 4.65 3.17 3.69 2.1-4.06-1.08-5.16-1.95-3.09-1.74-3.49-1.37-.31.39.64.37 1.28.77 1.95 1.09m-8.81-6.23c4.49 1.66-.02-3.16-2.07-2.88-.91-1.58-3.48-2.58-1.67-3.43-3.26 1.13-3.42-4.3-4.95-3.53-3.45-1.09-1.34-4.95-5.45-7.32-.37-2.5-4.08-4.66-5.26-8.43-.52-1.93-4.19-7.46-1.94-2.31 1.92 4.96 5.29 9.21 8.1 13.45 2.18 4.04 4.76 8.26 8.72 10.78 1.34 1.3 2.63 3.27 4.52 3.67M30.17 83.45c.16-.68.82 1.46 0 0m18.3 16.18c1-.44-1.43-.56 0 0m2.44.89c-.25-1.23-1.11.69 0 0m3.05 1.27c1.45-1.38-2.24-.87 0 0m5.22 2.91c.89-1.3-2.82-.49 0 0m-10.03-6.99c2.25-1.46-2.91-.02 0 0m2.29 1.14c-.07-.77-.82.34 0 0m11.43 7.13c1.84 1.16 10.73 2.54 5.16.48-.93.2-10.33-2.66-5.16-.48M44.72 91.85c-.18-.77-2.85-.85 0 0m5.32 3.1c1.39-.96-2.87-.74 0 0m4.48 2.75c1.98-.75-3.23-.75 0 0m-11.97-8.21c2.16 1.65 8.7.21 3.3-.99-2.45-1.31-7.99-2.2-4.22.79zm15 9.16c.9-1.53-3.77-.88 0 0m-4.56-3.63c5.27 1.49-4.43-3.34-1.3-.55l.7.32zm9.14 5.28c4.99.05-4.51-.68 0 0m-21.5-13.7c-.19-.93-1.23.08 0 0m29.94 18.44c.14-1.68-1.62 1.25 0 0M49.15 91.82c-.3-.88-1.56-.04 0 0m-8.04-5.8c2.86-.17-3.93-1.26 0 0m-9.54-6.16c-.36-1.38-3.12-2.47 0 0M56.6 95.74c-.52-.6-.25.13 0 0m15.58 9.56c-.05-.91-.85.35 0 0M55.22 94.32c.28-1.18-2.44-.36 0 0m-11.6-7.36c2.13-.23-3.42-1.44 0 0m19.63 12.2c3.32-1.32-3.24-.64 0 0m-10.21-6.93c3.83.49-4.56-2.61-.84-.28zm13.31 8.19c3.58-2.14 2.4 5.01 6.07.6 3.62-2.64-3.13 3.27 1.33.47 3.23-2.16 7.99 1.02 11 2.06 2.16-.11 4.27 1.87 6.49.67 4.27-1.15-8.36-1.71-5.05-3.75-3.91 1.14-6.8-1.36-8.72-3.86-4.39-1.01-9.46-3.25-11.65-7.14-.89-1.46 1.29.21-.77-2.18-2.64-2.35-3.96-5.02-5.73-7.88-2.12-1.13-2.37-4.46-2.58-.11.02-2.74-2.56-4.59-3.19-3.82-.01-2.64 2.76-1.32.82-3.27-.42-2.74-1.79-5.59-2.2-8.68-.64-1.49-.09-4.68-2.19-1.31-.76 3.57-.25-4.38.94-1.76 1.56-2.67-.56-2.36-.65-1.99 1.02-2.26.64-5.46-.27-4.24.54-2.39.86-8.8-.81-7.66 1.01-2.5 1.92-11.44-2.47-8.03-1.78.03-4.85.64-6.31 1.37 4.56 2.51-.46.91-2.32.51-.24 2.33-2.08 1.32-4.38 1.34 3.67.45-1.79 3.75-3.89 2.47-2.74 1.31 2.36 4.57.05 5.58.28 1.52-4.19-.55-3.84 2.96-2.65-1.12-.36 4.16.96 2.38 4.51 1.22 3.18 4.01 3.29 6.65-.74 1.54-3.63-3.62-.64-3.38-2.36-3.83-2.61-1.38-4.56.39-.45.13 4.99 2.53 1.57 3.72 3.01.47 3.1 3.1 3.71 4.76 1.81 1.88 1.44-2.08 3.6.18-1.37-2.02-7.25-5.68-2.52-4.51-.03-2.03-.86-3.67.6-3.63 1.44-2.6-1.51 6.42 1.73 3.11.9-.39 1.12-2.6 2.73.21 2.34 2.3.85 3.97-2.46 1.86.59 2.01 4.42 2.72 3.7 5.86.76 2.76 1.83 1.74 2.76 1.58.73 2.68 1.14.71 1.18-.57 3.34.72 2.56 2.69 3.6 4.07 2.3 1.04-3.29-7.04.66-2.43 4.16 3.75 1.56 5.32-2.17 4.72 2.36-.19 3.12 3.19 6.07 3.07 2.69 1.28 4.52 6.2-.12 4.15-1.61-1.45-7.31-3.24-2.65-.48 4.3 1.99 7.71 3.18 11.86 5.68 2.96 2.12 4.25 4.54 5.37 5.02-2.49 1.19-7.51-.95-3.78-1.61-2.33-.42-4.94-1.6-2.71 1.3 1.89 1.58 6.71 1.42 7.58 1.59-.73 1.61-1.99 1.74.03 1.86-2.25 1.22.72 1.41.93 2.1m-4.6-13c-1.37-1.43-1.72-4.11-.24-1.78.75.3 2.43 4.38.24 1.78m14.99 9.52c.85-.06.02.65 0 0M59.59 83.91c-.06-2.17.49 1.67 0 0M58.1 81.9c-1.73-3.32 2.17.95 0 0M40.04 69.44c1.01-.27.5 1.73 0 0m14.37 7.79c.62-2.33.73 1.96 0 0m-10.15-7.06c-.71-1.29 1.5 1.21 0 0m8.71 2.79c-1.63-3.65 1.16-2 .36.6zM37.95 62.95c-.73-1.2-1.93-4.72-1.55-5.79.35 1.75 3.72 7.53 1.65 2.39-2.28-4.3 2.73 1.4 3.25 2.47.24 1.07-1.41-.29-.29 2.21-2.04-2.85-1.2 1.58-3.06-1.28m-4.64-3.2c.19-2.79 1.06 1.91 0 0m2.08.72c1-2.11 1.69 2.93 0 0m-5.02-3.89c-1.73-1.72-2.98-3.3.08-1.07 1.18.05-2.62-3.6.28-1.16 3.06.56 1.51 5.01-.36 2.23m2.64-.07c1-.99.53.98 0 0m1.62.52c-1.52-2.85 1.85 1.2 0 0m-3.22-3.08c-5.02-4.47 6.31 2.34.82.83zm14.39 8.36c-2.18-1.3-.58-9.18.16-3.79 2.11-.68-.12 2.78 1.46 2.75-.24 2.18-.95 2.97-1.62 1.04m5.33 3.15c.21-2.38.45 1.62 0 0m-.93-.92c.24-1.01.03 1.2 0 0M32.39 52.48c-3.23-4.45 9.38 4.51 2.07 1.13-.77-.21-1.69-.28-2.07-1.13m10.26 5.43c-.31-3.75.68.62 0 0m7.78 5c.6-2.14.05 1.41 0 0M32.89 50.78c1.92-.41 7.95 3.37 2.41 1.08-.62-.69-1.93-.38-2.41-1.08m16.47 8.21c.2-3.84 1.15-2.29.01.55zm-15.05-9.55c.78-1.15-2.08-5.18.41-1.45 1.08.85 3.11 1.43 1.31 1.79 2.84 2.5-.68.68-1.72-.34m14.24 8.35c.54-4.37.47 2.56 0 0M32.68 45.41c.6-.26.32.79 0 0m3.71 2.21c.96-2.01 1.77 2.23 0 0m10.47 5.82c0-.77.2 1.12 0 0m-.6-1.34c-1.45-3.59 1.35 1.9 0 0m-.89-2.35c-.25-1.48.83 1.86 0 0m1.45-2.36c-1-1.76 1.26-7.75 1.51-4.03-1.05 2.89-.3 4.51.43.63 1.36-3.06-.29 6.02-1.94 3.4m1.49-8.91c.44-.53.1.65 0 0M45.82 87.6c-.59-.52.07.33 0 0m5.13 2.6c2.86.74 2.84-.44.26-.79-1.39-1.29-5.77-2.66-1.85-.16.27.65 1.09.63 1.59.95m-10.14-6.74c1.57 1.18 5.93 3.32 2.24.45 1.24-1.44-2.38-2.21-1.18-3.18-3.06-1.87-2.41-1.7-.27-1.64-3.67-1.64.53-1.52.33-2.36-1.42-.28-7.03-2.5-3.73.18-3.36-1.71-.8.64-1.82.39-3.44-.94 3.06 2.62-.54 1.73 1.97 1.56 5.3 4 .83 1.65-.57.85 3.21 2.14 4.14 2.78m5.37 3.09c6.53 2.1-3.2-2.58 0 0m27.5 16.65c.08-1.3-.9 1.11 0 0m2.82 1.19c1.51-1.46.06 2.33 2.5-.36.03-1.92-.07-3.06-2.8-.72-.75.42-1.09 2.19.3 1.08M31.65 76.22c-.47-1.82-3.25-1.81 0 0m3.01 1.98c-1.12-1.86-4-1.68 0 0m17.17 10.35c1.68 1.49 7.7 1.09 2.03.18-.83-1.24-5.32-.94-2.03-.18m23.6 14.57c2.57-2.16-2.5.97 0 0m5.36 3.69c.02-.69-1.11.3 0 0m.01-.97c2.86-3.03-2.77.18 0 0M24.22 70.01c-2.43-3.47-1.51-5.03-3.86-7.87-.45-2.17-4.03-7.09-1.85-1.88 1.99 3.05 2.58 7.77 5.71 9.75m55.68 34.87c5.26-3.4-2.15-1.48 0 0m4.01 1.57c2.64-2.26-1.66-.47 0 0M30.75 72.38c.76-1.12-1.94-.14 0 0m52.33 32.99c2.55-1.64-.59-1.39-.46.15zM48.5 83.58c-.09-1.11-1.35.09 0 0m2.14 1.23c-.69-1.38-1.05.21 0 0m36.53 21.67c3.27-2.36-1.98-.45-.68.45zm-1.26-.6c2.67-2.23-2.8.99 0 0m6.39 4.25c1.79-1.19-2.17-.38 0 0M32.39 71.57c2.39.54 9.56 5.89 5.33.37-2.17-.64-.87-5.94-3.08-5 1.48 2.48 1.22 3.53-1.9 1.97-3.91-1.91-2.2.94-1.43 1.73-1.04.25 1.39.91 1.08.93m-10.9-8.61c.43-1.77-3.95-9.75-2.07-4 .68 1.21.61 3.49 2.07 4M41.5 75.3c-1.23-1.03-.06-.15 0 0m3.03.71c0-1.88-3.35-.77 0 0m26.3 16.57c-.5-1.28-1.98-.02 0 0m1.26.93c-.18-.72-.72.14 0 0m10.43 6.56c1-.74-1.25-.09 0 0M26.93 64.35c2.87-1.11-3.07-.79 0 0m41.59 26.2c-.04-1.86-1.83.46 0 0M25.8 61.71c1.84-.62-1.71-.41 0 0m5.34 2.59c-.03-.61-.56.23 0 0m65.22 39.99c2.37-.48 7.77 1.21 8.64-.63-2.88-.07-9.95-2.03-10.28.46l.63.1zM32.84 64.73c.05-1.88-1.46-.07 0 0m-14.05-9.75c-.64-3.58-2.43-.54 0 0m3.35.84c.04-1.15-3.07-1.03 0 0m1.91.94c-.55-.44-.43.57 0 0m12.06 7.73c.57-.52-1.35-.38 0 0m-13.33-9.85c-.33-2.71-3.88-.4 0 0m-6.87-4.46c-.1-1.25-.67.47 0 0m1.02-.77c-.17-1.48-.88.19 0 0m5.65 3.37c2.39-.94-4.35-1.94-.49-.18zm75.59 46.69c1.53-1.4-1.94-.43 0 0m9.13 4.74c.61-1.81-1.54.23 0 0M23.15 49.82c.26-1.75-1.89.35 0 0m-8.03-5.38c-.43-2.47-.37-6.82 3.76-5.35-5.51 1.1 3.82 6.85 2.64 2.31 2.32.11 4.53-1.37 3.32.88 4.57-.5 7.73-4.46 12.14-3.91 3.44-.46 7.19-.8 10.89-2.18 3.04-.22 5.97-3.5 4.31-5.44-4.15-.35-8.5.17-13.08 1.08-5.08 1.06-9.7 3.06-14.83 3.93-5 .67 1 1.85-.43 2.11-2.61.9 3.11 1.52-.34 2.47-2.13-.41-4.35-1.14-3.44-3.38-4.79.62-9 2.61-5.21 7.48zm11.54-5.88c1.12-4.14 6.01 3.4 1.84.55-.5-.38-1.32-.68-1.84-.55m.22-2.01c1.62-1.2.86.68 0 0m2.06.04c.15-1.9 4.71 1.01.75.68zm2.81-1.14c1.03-1.2.3 1.07 0 0m.72-.48c1.71-2.06 9.69-1.31 3.85-.2-1.56-1.18-2.76.7-3.85.2m10.42-1.6c-.26-5.62 5.18 1.99 0 0m2.96-.02c1.08-2.83 4.2-1.14.5-.57.08.3-.11 1.46-.5.57M21.99 48.37c3.23-1.98-3.43-1.72 0 0m2.39.66c1.13-1.2-2.46-.49 0 0m-7.04-4.99c1.85-1.42-2.18-.54 0 0m95.35 59.65c.05-1.65-1.41.74 0 0M103 97.08c.28-1.9-1.24.16 0 0m12.36 7.25c2.58.01 7.82-.8 2.2-.8-.88.13-5.13.11-2.2.8M26.48 47.87c2.09-.14 3.27-2.3-.41-2.18-5.69-.59 5.02 1.95-.73 1.22-.77.51 1.09 1.1 1.14.96m1.84.93c-.22-1.34-.65.71 0 0m2.18-5.82c.9-1.12-1.26-.3 0 0m-6.95-11.6c3.73-1.27 8.82-2.69 10.58.62-1.79-2.15-.72-4.28.97-1.12 2.39 3.19 3.59-1.45 2.03-2.52 1.77 2.2 3.79 3.24 1.19.14 2.83-3.4-5.66.45-7.59.41-.92.41-9.58 2.2-7.18 2.47m2.19-4.18c2.13-1.6 7.35.96 4-1.59-.33-.3-7.35 1.93-4 1.59m7.75.32c2.49.06-1.07-3.34 1.89-1.8-.49-1.59-3.45-1.89-4.9-2.52-.82 1.45 1.66 4.34 3.01 4.32m-6.39-7.04c.86-1.16-1.51.6 0 0m3.16.76c4.01-.53-1.02-1.72-.81-.04zm-5.91-4.62c-2.82-3.69 5.31.62 2.44-3.24-2.41-1.92-4.73 2.16-2.44 3.24m36.21 19.5c1.29-2.29-5.34-3.09-.87-.81.42.14.32.97.87.81"/></symbol><symbol id="nginx" viewBox="0 0 128 128"><path fill="#090" d="M24.5 50.5c-1.5 0-2.5 1.2-2.5 2.7v14.1l-15.9-16c-.8-.8-2.2-1-3.2-.6S1 52.1 1 53.2v20.7c0 1.5 1.5 2.7 3 2.7s3-1.2 3-2.7V59.8l16.1 16c.5.5 1.2.8 1.9.8.3 0 .4-.1.7-.2 1-.4 1.3-1.4 1.3-2.5V53.3c0-1.5-1-2.8-2.5-2.8m19.7 11.8c-1.4 0-2.7 1.4-2.7 2.8s1.3 2.8 2.7 2.8l6.6.4-1.5 3.7h-8.5l-4.2-7.9 4.3-8.1H50l2.1 4h5.5L54 52.1l-.8-1.1H37.6l-.7 1.2L31 62.5l-.7 1.3.7 1.3 5.8 10.3.8 1.6h15.1l.7-1.7 4.3-9 1.9-4.3h-4.4zM65 50.5c-1.4 0-3 1.3-3 2.7V60h6v-6.7c0-1.5-1.6-2.8-3-2.8m30.4.3c-1-.4-2.4-.2-3.1.6L76 67.4V53.3c0-1.5-1-2.7-2.5-2.7S71 51.8 71 53.3V74c0 1.1.7 2.1 1.7 2.5.3.1.7.2 1 .2.7 0 1.6-.3 2.1-.8l16.2-16V74c0 1.5 1 2.7 2.5 2.7S97 75.5 97 74V53.3c0-1.1-.6-2.1-1.6-2.5m21.8 12.8 8.4-8.4c1.1-1.1 1.1-2.8 0-3.8-1.1-1.1-2.8-1.1-3.8 0l-8.4 8.4-8.4-8.4c-1.1-1.1-2.8-1.1-3.8 0-1.1 1.1-1.1 2.8 0 3.8l8.4 8.4-8.4 8.4c-1.1 1.1-1.1 2.8 0 3.8.5.5 1.2.8 1.9.8s1.4-.3 1.9-.8l8.4-8.4 8.4 8.4c.5.5 1.2.8 1.9.8s1.4-.3 1.9-.8c1.1-1.1 1.1-2.8 0-3.8zM62 73.9c0 1.4 1.5 2.7 3 2.7 1.4 0 3-1.3 3-2.7V62h-6z"/></symbol><symbol id="traefikproxy" viewBox="0 0 128 128"><path fill="#24a1c1" d="M63.998 6.385c5.807 0 10.967 4.096 10.967 9.14 0 5.042-4.912 9.138-10.968 9.138q-1.034-.001-2.706-.341a3.65 3.65 0 0 0-2.536.405l-39.314 22.36a1.83 1.83 0 0 0 .008 3.185l42.618 23.922a3.66 3.66 0 0 0 3.564.012l42.846-23.82a1.823 1.823 0 0 0 .016-3.186l-13.37-7.587a3.66 3.66 0 0 0-3.579-.02l-14.109 7.826a1.26 1.26 0 0 0-.637.955l-.005.136c0 5.045-4.912 9.137-10.967 9.137-6.05 0-10.963-4.091-10.963-9.138 0-5.044 4.913-9.14 10.964-9.14.227 0 .483.018.775.037l.464.05.512.06a3.66 3.66 0 0 0 2.263-.423l20.873-11.578a5.48 5.48 0 0 1 5.144-.09l.224.115 29.144 16.546c3.653 2.073 3.693 7.295.15 9.448l-.195.115-19.5 10.836a1.83 1.83 0 0 0-.936 1.622 1.84 1.84 0 0 0 .976 1.592l19.31 10.16c3.836 2.015 3.925 7.472.166 9.614L66.55 120.895a5.5 5.5 0 0 1-5.437 0L2.802 87.611c-3.766-2.15-3.662-7.619.183-9.622l19.521-10.185a1.832 1.832 0 0 0 .05-3.217l-19.76-11.09c-3.652-2.052-3.729-7.249-.218-9.43l.195-.119 48.523-27.59a3.68 3.68 0 0 0 1.641-1.967l.06-.195c1.707-5.072 5.58-7.81 11.001-7.81Zm27.075 67.32L67.115 87.482l-.224.122a5.46 5.46 0 0 1-5.18-.098L37.827 74.039a3.64 3.64 0 0 0-3.477-.052l-13.768 7.195a1.83 1.83 0 0 0-.057 3.21l42.062 24.069a3.66 3.66 0 0 0 3.617 0l42.422-24.238a1.83 1.83 0 0 0 .926-1.619 1.83 1.83 0 0 0-.978-1.588l-13.987-7.38a3.65 3.65 0 0 0-3.516.07zm0 0"/></symbol><symbol id="androidstudio" viewBox="0 0 128 128"><path fill="#073042" d="M51.3 17.7H23.2C17.6 17.7 13 22.3 13 28c-.2 5.5 4.2 10.1 9.7 10.3h28.9z"/><path fill="#4285F4" d="M115 109.3H23.2c-5.7 0-10.2-4.6-10.2-10.3V27.9c0 5.7 4.6 10.3 10.2 10.4h76.9s15-1.3 15 10v61z"/><path fill="#3870B2" d="M72.2 72.9C76.3 69.8 77.1 64 74 60c-1.7-2.2-4.3-3.6-7.1-3.7h.3c.5-.1 1.1-.1 1.6 0v-5.7c0-.7-.3-1.3-.9-1.6-.9-.5-2-.2-2.5.7-.2.3-.3.6-.2 1v5.8c-5 .8-8.5 5.5-7.7 10.6v.1c.4 2.4 1.7 4.6 3.7 6l-16.9 36.2h11l7.8-16.6c.9-2 3.3-2.9 5.4-1.9.8.4 1.5 1.1 1.9 1.9l8.1 16.6h11.2zm-5.7-1.6c-3.2 0-5.7-2.6-5.7-5.8s2.6-5.7 5.8-5.6c1.5 0 2.8.6 3.9 1.6 2.3 2.2 2.3 5.8.1 8.1-1 1-2.5 1.7-4.1 1.7"/><path fill="#FFF" d="M45.2 22.7h39.4v7.2H45.2z"/><path fill="#073042" d="M63.5 59.8c3.1 0 5.7 2.6 5.6 5.8 0 3.1-2.6 5.7-5.8 5.6-3.1 0-5.6-2.6-5.6-5.7 0-1.5.6-2.9 1.7-4s2.6-1.7 4.1-1.7m2.2-3.3v-6c0-.7-.3-1.3-.9-1.6-.9-.5-2-.2-2.5.7-.2.3-.3.6-.2 1v5.8c-5 .8-8.5 5.5-7.7 10.6v.1c.4 2.4 1.7 4.6 3.7 6l-21.3 45.7c-.8 1.6-.7 3.6.4 5.1 1.6 2.3 4.7 2.9 7 1.3.8-.5 1.4-1.3 1.8-2.1l14.2-30.4c.9-2 3.3-2.9 5.4-1.9.8.4 1.5 1.1 1.9 1.9L82 122.8c1.2 2.5 4.2 3.5 6.7 2.3s3.5-4.2 2.3-6.7L69.1 72.9c4-3.2 4.7-9.1 1.5-13.1-1.2-1.6-2.9-2.7-4.9-3.3"/><path fill="#3DDC84" d="M78.8 29.1c-1.5 0-2.7-1.1-2.7-2.6 0-.7.3-1.5.8-2 1.1-1 2.7-1 3.8 0 .5.5.8 1.2.8 1.9-.1 1.5-1.2 2.6-2.7 2.7M49.2 29c-1.5 0-2.7-1.2-2.7-2.6 0-.7.3-1.4.8-1.9.9-1.1 2.6-1.3 3.7-.4h.1c1.1 1 1.2 2.7.2 3.8l-.3.4c-.5.5-1.2.8-1.9.8m30.5-16.2 5.3-9.2c.3-.5.1-1.1-.3-1.5-.5-.2-1-.1-1.3.3L77.8 12C69 8.1 59 8.1 50.3 12l-5.4-9.4c-.2-.3-.6-.6-1-.6s-.8.2-1 .6c-.2.3-.2.8 0 1.1l5.4 9.2C38.9 18 32.8 27.6 31.9 38.2h64.2c-.8-10.7-7-20.2-16.4-25.3"/><path fill="#073042" d="M105.6 58.1h-4.2c-.2.1-.4.3-.4.6v66.5c0 .3.2.5.5.5h4.4c5.1 0 9.2-4.2 9.2-9.2V48.8c0 5.1-4.1 9.2-9.2 9.2h-.3z"/></symbol><symbol id="androidauto" viewBox="0 0 2751 2813.6"><path fill="#03A9F4" fill-rule="evenodd" d="M187.6 2438.4C84 2438.4 0 2354.4 0 2250.8c0-34.1 9.1-66.1 25.1-93.6L1213 94c32.2-56.1 92.9-94 162.4-94s130.2 37.9 162.5 94l1188 2063.2c16 27.5 25.1 59.5 25.1 93.6 0 103.6-84 187.6-187.6 187.6z" clip-rule="evenodd"/><linearGradient id="androidauto-SVGID_1_" x1="1039.848" x2="2691.901" y1="1466.263" y2="2404.459" gradientUnits="userSpaceOnUse"><stop offset="0" style="stop-color:#1a237e;stop-opacity:.2"/><stop offset="1" style="stop-color:#1a237e;stop-opacity:2.000000e-02"/></linearGradient><path fill="url(#androidauto-SVGID_1_)" d="M2751 2250.9 1375.4 875.3v1563h1188c103.6.1 187.5-83.9 187.6-187.4"/><path fill="#039BE5" fill-rule="evenodd" d="M1212.9 94 25.1 2157.1c-16 27.5-25.1 59.5-25.1 93.6 0 103.6 84 187.6 187.6 187.6h1188V0c-69.7 0-130.4 37.9-162.7 94" clip-rule="evenodd"/><path fill="#F1F1F1" fill-rule="evenodd" d="M1375.4 875.3 2438.2 2751l-62.6 62.6-1000.4-375.1-1000.2 375-62.6-62.6z" clip-rule="evenodd"/><path fill="#E1E1E1" fill-rule="evenodd" d="M1375.4 875.3 2438.2 2751l-62.6 62.6-1000.4-375.1" clip-rule="evenodd"/><path fill="#FFF" fill-rule="evenodd" d="m1375.4 891.3 1057.1 1865.5 5.7-5.8L1375.4 875.3 312.5 2750.9l5.8 5.8z" clip-rule="evenodd" opacity=".2"/><path fill="#1A237E" fill-rule="evenodd" d="M489.6 2424.4h-302c-101.3 0-183.8-80.3-187.5-180.7-.1 2.3-.1 4.7-.1 7.1 0 103.6 84 187.6 187.6 187.6h294.1z" clip-rule="evenodd" opacity=".2"/><path fill-rule="evenodd" d="m2375.7 2799.6-1000.4-375.1-1000.2 375-57.5-57.6-5.1 9 62.6 62.6 1000.2-375 1000.4 375.1 62.5-62.6-5-8.9z" clip-rule="evenodd" enable-background="new" opacity=".07"/><path fill="#1A237E" fill-rule="evenodd" d="M2750.9 2243.7c0 .9-.1 1.9-.1 2.8v.2c-.1 1.5-.2 3.1-.3 4.6-.1 1.6-.3 3.1-.4 4.7v.1c-3.7 36.2-17.7 69.4-39.1 96.5v.1c-.9 1.2-1.8 2.3-2.8 3.4v.1c-.9 1.1-1.9 2.3-2.9 3.4l-.1.1c-1 1.1-1.9 2.2-2.9 3.3l-.1.1c-1 1.1-2 2.1-3 3.2l-.2.2c-1 1-2 2.1-3 3.1l-.1.1c-1 1-2.1 2-3.1 3l-.2.2c-1 1-2 1.9-3.1 2.9l-.2.2c-1 .9-2.1 1.9-3.2 2.8l-.4.4c-1 .9-2 1.7-3 2.5-.2.1-.3.3-.5.4l-3 2.4c-.2.1-.4.3-.5.4-1 .8-2 1.6-3 2.3-.2.1-.3.2-.5.3-1.1.8-2.1 1.6-3.2 2.3-.2.1-.4.3-.6.4-1 .7-2.1 1.5-3.1 2.2l-.9.6c-1 .6-1.9 1.3-2.9 1.9l-.9.6c-1 .6-1.9 1.2-2.9 1.8-.3.2-.6.3-.8.5-1 .6-2 1.2-3.1 1.8-.4.2-.7.4-1.1.6-1 .5-1.9 1.1-2.9 1.6-.4.2-.7.4-1.1.6-1 .5-2 1-2.9 1.6-.4.2-.8.4-1.3.6-.9.5-1.9.9-2.8 1.4-.5.2-.9.4-1.4.7-.9.4-1.8.9-2.7 1.3-.4.2-.9.4-1.3.6-1 .4-1.9.8-2.9 1.3-.5.2-.9.4-1.4.6-.9.4-1.9.8-2.8 1.2-.5.2-1.1.4-1.6.6-.9.3-1.8.7-2.7 1-.6.2-1.1.4-1.7.6-.9.3-1.8.6-2.6.9l-1.8.6c-.9.3-1.7.6-2.6.8l-2.1.6c-.8.2-1.6.5-2.3.7-.6.2-1.3.3-1.9.5-.8.2-1.7.5-2.5.7-.7.2-1.4.3-2 .5-.8.2-1.6.4-2.5.6-.8.2-1.7.4-2.5.5-.7.1-1.4.3-2 .4-.8.2-1.6.3-2.4.5-.7.1-1.4.3-2.2.4s-1.6.3-2.4.4c-.7.1-1.5.3-2.2.4-.8.1-1.7.2-2.5.4l-2.1.3c-1 .1-1.9.2-2.9.3-.6.1-1.2.1-1.8.2-.8.1-1.7.2-2.6.2-.7.1-1.5.1-2.2.2-.8.1-1.6.1-2.4.2s-1.6.1-2.4.2c-1.6.1-3.1.1-4.7.2h-.1c-1.6 0-3.2.1-4.8.1h-302.3l7.9 14h294.4c4.9 0 9.7-.2 14.4-.5.3 0 .5 0 .8-.1 1.3-.1 2.7-.2 4-.4h.2c1.5-.2 3-.3 4.5-.5.3 0 .7-.1 1-.1 1.2-.2 2.5-.3 3.7-.5.4-.1.8-.1 1.2-.2 1.2-.2 2.3-.4 3.5-.6.5-.1.9-.2 1.4-.3 1.1-.2 2.2-.4 3.2-.6.4-.1.9-.2 1.3-.3 1.1-.2 2.2-.5 3.3-.7.6-.1 1.1-.3 1.7-.4.9-.2 1.9-.4 2.8-.7.7-.2 1.3-.4 2-.5.8-.2 1.7-.4 2.5-.7.6-.2 1.2-.4 1.8-.5.9-.3 1.7-.5 2.6-.8.7-.2 1.4-.4 2-.7.8-.3 1.6-.5 2.4-.8.7-.3 1.5-.5 2.2-.8.7-.2 1.4-.5 2.1-.7.8-.3 1.5-.6 2.2-.9s1.4-.5 2-.8c.8-.3 1.6-.7 2.4-1 .6-.2 1.2-.5 1.8-.7.8-.4 1.7-.7 2.5-1.1.6-.2 1.1-.5 1.7-.7.8-.4 1.6-.7 2.4-1.1.6-.3 1.1-.5 1.7-.8.8-.4 1.7-.8 2.5-1.2.5-.3 1-.5 1.6-.8.9-.5 1.8-.9 2.7-1.4.4-.2.9-.5 1.4-.7.9-.5 1.8-1 2.6-1.5.4-.2.9-.5 1.3-.7.9-.5 1.9-1.1 2.8-1.7.4-.2.7-.4 1.1-.6 1-.6 1.9-1.2 2.9-1.8.3-.2.7-.4 1-.6 1-.6 1.9-1.3 2.9-1.9l.9-.6 3-2.1c.2-.2.5-.3.7-.5 1-.7 2-1.4 3-2.2.2-.2.4-.3.7-.5 1-.7 1.9-1.5 2.9-2.2.2-.2.5-.3.7-.5 1-.8 1.9-1.5 2.9-2.3.2-.2.4-.3.6-.5 1-.8 1.9-1.6 2.8-2.4.2-.2.4-.3.6-.5l3-2.7.3-.3c1-.9 2.1-1.9 3.1-2.9l.2-.2c1-1 2-1.9 3-2.9.1-.1.2-.1.2-.2 1-1 2-2 3-3.1l.2-.2c1-1 2-2.1 3-3.2l.1-.1c1-1.1 1.9-2.1 2.8-3.2l.2-.2c1-1.1 1.9-2.2 2.9-3.4l.1-.1c.9-1.1 1.9-2.3 2.8-3.4v-.1c.9-1.2 1.8-2.3 2.7-3.5v-.1c19.8-26.4 32.8-58.3 36.3-92.9v-.1c.2-1.6.3-3.1.4-4.7.1-1.5.2-3.1.3-4.6v-.2c.1-1.5.1-3 .2-4.5v-.3c0-1.5.1-3 .1-4.5v-.4c-.5-2.6-.6-5-.6-7.3" clip-rule="evenodd" opacity=".2"/><path fill="#FFF" fill-rule="evenodd" d="M25.1 2171.1 1212.9 108c16.2-28.1 39.5-51.6 67.4-68.1s60.4-25.9 95.1-25.9h.2c69.5 0 130.1 37.9 162.4 94l1188 2063.2c14.9 25.6 23.7 55.1 24.9 86.5 0-.6 0-1.1.1-1.7v-.3c0-1.5.1-3 .1-4.5v-.4c0-34.1-9.1-66.1-25.1-93.6L1538 94c-32.3-56.1-93-93.9-162.4-94h-.2c-34.7 0-67.2 9.4-95 25.9-28 16.5-51.3 40-67.5 68.1L25.1 2157.1c-16 27.5-25.1 59.5-25.1 93.6 0 2.3.1 4.6.1 6.9 1.2-31.4 10.1-60.8 25-86.5" clip-rule="evenodd" opacity=".2"/><radialGradient id="androidauto-SVGID_2_" cx="1006.982" cy="188.699" r="3140.371" gradientUnits="userSpaceOnUse"><stop offset="0" style="stop-color:#fff;stop-opacity:.1"/><stop offset="1" style="stop-color:#fff;stop-opacity:0"/></radialGradient><path fill="url(#androidauto-SVGID_2_)" fill-rule="evenodd" d="m2702.1 2377.1.1-.1c1-1.1 1.9-2.1 2.8-3.2l.2-.2c1-1.1 1.9-2.2 2.9-3.4l.1-.1c.9-1.1 1.9-2.3 2.8-3.4v-.1c.9-1.2 1.8-2.3 2.7-3.5v-.1c19.8-26.4 32.8-58.3 36.3-92.9v-.1c.2-1.6.3-3.1.4-4.7.1-1.5.2-3.1.3-4.6v-.2c.1-1.5.1-3 .2-4.5v-.3c0-1.5.1-3 .1-4.5v-.4c0-34.1-9.1-66.1-25.1-93.6L1538 94c-32.3-56.1-93-93.9-162.4-94h-.2c-34.7 0-67.2 9.4-95 25.9-28 16.5-51.3 40-67.5 68.1L25.1 2157.1c-16 27.5-25.1 59.5-25.1 93.6 0 103.6 84 187.6 187.6 187.6h302l-177.1 312.5 62.6 62.6 1000.2-375 1000.4 375.1 62.6-62.6-177.1-312.6h302.3c4.9 0 9.7-.2 14.4-.5.3 0 .5 0 .8-.1 1.3-.1 2.7-.2 4-.4h.2c1.5-.2 3-.3 4.5-.5.3 0 .7-.1 1-.1 1.2-.2 2.5-.3 3.7-.5.4-.1.8-.1 1.2-.2 1.2-.2 2.3-.4 3.5-.6.5-.1.9-.2 1.4-.3 1.1-.2 2.2-.4 3.2-.6.4-.1.9-.2 1.3-.3 1.1-.2 2.2-.5 3.3-.7.6-.1 1.1-.3 1.7-.4.9-.2 1.9-.4 2.8-.7.7-.2 1.3-.4 2-.5.8-.2 1.7-.4 2.5-.7.6-.2 1.2-.4 1.8-.5.9-.3 1.7-.5 2.6-.8.7-.2 1.4-.4 2-.7.8-.3 1.6-.5 2.4-.8.7-.3 1.5-.5 2.2-.8.7-.2 1.4-.5 2.1-.7.8-.3 1.5-.6 2.2-.9s1.4-.5 2-.8c.8-.3 1.6-.7 2.4-1 .6-.2 1.2-.5 1.8-.7.8-.4 1.7-.7 2.5-1.1.6-.2 1.1-.5 1.7-.7.8-.4 1.6-.7 2.4-1.1.6-.3 1.1-.5 1.7-.8.8-.4 1.7-.8 2.5-1.2.5-.3 1-.5 1.6-.8.9-.5 1.8-.9 2.7-1.4.4-.2.9-.5 1.4-.7.9-.5 1.8-1 2.6-1.5.4-.2.9-.5 1.3-.7.9-.5 1.9-1.1 2.8-1.7.4-.2.7-.4 1.1-.6 1-.6 1.9-1.2 2.9-1.8.3-.2.7-.4 1-.6 1-.6 1.9-1.3 2.9-1.9l.9-.6 3-2.1c.2-.2.5-.3.7-.5 1-.7 2-1.4 3-2.2.2-.2.4-.3.7-.5 1-.7 1.9-1.5 2.9-2.2.2-.2.5-.3.7-.5 1-.8 1.9-1.5 2.9-2.3.2-.2.4-.3.6-.5 1-.8 1.9-1.6 2.8-2.4.2-.2.4-.3.6-.5l3-2.7.3-.3c1-.9 2.1-1.9 3.1-2.9l.2-.2c1-1 2-1.9 3-2.9.1-.1.2-.1.2-.2 1-1 2-2 3-3.1l.2-.2c.8-.9 1.7-2 2.7-3" clip-rule="evenodd"/></symbol><symbol id="windows11" viewBox="0 0 128 128"><path fill="#0078d4" d="M67.328 67.331h60.669V128H67.328zm-67.325 0h60.669V128H.003zM67.328 0h60.669v60.669H67.328zM.003 0h60.669v60.669H.003z"/></symbol><symbol id="gtk" viewBox="0 0 89 96"><g stroke="#fff" stroke-width="2.12"><path fill="#e40000" d="M3.12 66.17 1.06 14.71l32.93 24.7v55.58z"/><path fill="#7fe719" d="m34 95 49.4-20.58 4.12-51.46L34 39.43v55.58z"/><path fill="#729fcf" d="m1.06 14.71 32.93 24.7 53.52-16.47L50.76 1.06z"/><path stroke-width="1.25" d="m50.6 51.3-47.3 14zl33 23zv-50"/></g></symbol><symbol id="cmake" viewBox="0 0 128 128"><path fill="#064F8C" d="M62.8.4.3 123.8l68.1-57.9z"/><path fill="#249847" d="m123.8 127.7-84-33.9L0 127.7z"/><path fill="#BE2128" d="M128 126.6 65.6 2.5l9.2 102.6z"/><path fill="#CDCDCE" d="m71.9 104-3.1-34.9L42 92z"/></symbol><symbol id="gcc" viewBox="0 0 128 128"><path fill="#ffcfab" d="m82.04 11.032-4.805 7.352q11.392 13.22 22.785 26.446c1.07-4.376 1.852.394 2.723 2.248 2.344 5.29 2.708 11.188 3.437 16.851 1.382 10.718.928 16.99-.056 22.84-3.184 18.95-14.488 30.013-25.279 36.38-3.693 2.179-7.248 3.702-12.46 4.415-5.372.733-10.635.441-16.026-.61-4.45-.864-8.926-2.327-13.038-4.212-6.555-3.004-11.965-8.205-16.202-13.91-4.096-5.515-6.681-12.102-8.647-18.7-3.57-12.002-5.076-24.785-2.23-37.134 1.776-7.694 4.335-15.316 7.836-22.345 3.714-7.456 8.933-14.21 15.255-19.812 3.796-3.364 7.92-6.464 12.567-8.332C51.307 1.134 54.913.828 58.638 1.07c3.683.243 7.197.657 10.703 1.905 4.774 1.697 9.268 4.351 12.7 8.057Zm0 0"/><path fill="#f39505" d="m75.951 18.715-2.849.609-3.865 2.033-5.897-.813-10.58 13.02-5.693.814-2.85 1.423 2.647 6.714L62.73 29.497l8.747-1.02zm5.495 1.016-2.239 3.662.406 3.255 4.678.406 6.308-3.458-4.678-1.423z"/><path fill="#ffcfab" d="m84.901 15.255 4.682 5.898 1.22 2.036-8.95-3.052 1.016-2.85zm0 0"/><path fill="#ab9a7e" d="m47.067 42.921 3.252 5.288-3.252 8.344 7.73 1.422 1.626 1.626 4.88 7.526 15.462-8.136 4.6 1.271 4.963-1.474-3.458-3.662.61-1.016 1.628-1.016.813 2.642 1.423 3.254 3.865 4.68 1.016-.61.204-3.049 3.594-.632 1.267-.986 3.175-.386.814-4-2.34-9.664v-4.068l3.663-.61 3.254 2.443 4.679 1.219 1.833-.406-5.495-6.916-3.375-3.456-1.912-1.224-3.663-2.442-7.528.408-5.9 1.425-5.084 2.443-3.053-.411-3.866-1.83-1.218-1.832-7.933-.203zm0 0"/><path fill="#fff" d="m84.969 9.457-3.245 1.288-4.96 6.136-5.287 12.002 2.036 2.443 5.694 1.626 6.511-2.642 9.953-2.515-1.219-1.398-1.41-1.175-13.226 2.239-.813-2.443 1.017-2.642 4.881-7.527 5.088 2.235 5.759 1.961.45-.793-3.905-2.614-3.73-5.47zm26.379 11.9-3.46.816s-2.845 1.423-2.031 1.423c.813 0 4.678 1.219 4.678 1.219l1.629 1.224.407 1.828-2.24 4.475-1.016 1.02-4.678-3.052-1.426-1.02-1.423-.204-2.24.204 2.331 2.984 1.471.044 5.44 6.044 1.35 1.643 2.43-1.56 2.846-6.306 1.58-5.013.217-4.2-1.304-1.57zM94.87 38.853l-1.829.204-3.255 2.848 1.22 1.626 1.63-.61 2.844-3.052zM91.465 52.55c-.762-.042-2.49 1.296-2.52 2.143-.035 1.042 2.535 3.071 2.735 2.158.197-.908.341-3.072.126-4.028-.04-.18-.164-.263-.34-.273zm5.282.317c-.946.006-2.299.209-2.299.209s-.546 1.87.251 1.87c.8 0 3.006-1.397 2.948-1.87v-.002c-.022-.16-.406-.21-.9-.207m-11.639.024-1.833 1.016-.813 1.422 3.052 1.833.61-1.63z"/><path d="M56.03.004c-2.795.05-5.527.487-8.15 1.547-4.732 1.902-8.899 5.041-12.716 8.423-6.368 5.645-11.629 12.45-15.372 19.968-3.524 7.072-6.096 14.731-7.88 22.459-2.872 12.463-1.348 25.336 2.239 37.395 1.975 6.627 4.577 13.272 8.729 18.86 4.272 5.754 9.737 11.017 16.398 14.07 4.149 1.902 8.66 3.377 13.154 4.25v-.002c5.435 1.06 10.759 1.357 16.194.615 5.277-.722 8.923-2.282 12.65-4.48 10.88-6.42 22.314-17.623 25.524-36.737.99-5.884 1.446-12.233.058-22.99-.726-5.64-1.082-11.592-3.474-16.994l-.002-.006-.002-.004c-.39-.826-.798-2.479-1.294-3.471-.123-.248-.247-.465-.458-.647-.026-.023-.076-.033-.107-.054l.27-.364c.46-.733 1.575-.642 3.4.49 1.486.877 3.443 1.056 5.543 1.203 3.435.235 3.163-.28 1.55-1.901l-1.945-1.745s.714.414 1.9-.682c1.592-1.469 4.635-8.224 5.177-13.086.61-4.933-.204-5.672-5.472-5.067-2.16.271-4.765.908-5.845 1.58 0 0-1.54.774-1.306 1.213.24.438 2.29.652 2.29.652 3.85.606 4.901 1.881 4.901 3.3 0 1.487-2 5.145-2.944 5.145-.338 0-1.554-.949-2.702-2.028-2.295-2.227-3.53-2.519-5.753-1.862-1.248-.343-3.06-.522-4.523-1.363-.36-.203-.127-.492-.84-1.386-1.279-1.609-2.255-1.467-3.607-1.132-1.689.407-1.756.408-.474-.538 1.283-.944 1.214-1.08-1.618-4.797l-2.837-3.849 3.375 1.69c3.448 1.757 6.416 2.226 7.092 1.147.272-.339-.676-1.216-2.095-1.89-1.35-.677-2.97-2.23-3.578-3.378-.674-1.216-1.555-2.633-1.957-3.175-1.017-1.147-4.55-1.765-6.45-1.05a4.8 4.8 0 0 0-.888.463c-3.445-3.562-7.844-6.13-12.501-7.785C66.109.739 62.544.32 58.844.076A34 34 0 0 0 56.03.004m.018 1.027a33 33 0 0 1 2.727.069c3.666.242 7.128.652 10.566 1.875 4.498 1.6 8.711 4.08 12.011 7.463-1.047.953-1.932 2.276-2.97 3.638-1.316 1.717-2.043 3.017-2.657 4.06-1.263-.299-3.428.622-4.305 1.435-1.485 1.352-1.825 1.418-4.73.674-2.9-.81-3.238-.742-4.793.677-.876.876-3.312 3.917-5.403 6.753-2.029 2.902-3.916 5.269-4.12 5.336-.203 0-1.622.136-3.108.267-1.486.136-3.51.54-4.522.949-1.622.605-1.758.876-1.283 2.634.334 1.012 1.82 4.12 3.374 6.82l2.77 4.863-1.69 4.052c-.943 2.232-1.553 4.323-1.35 4.594.204.338 2.162.809 4.39 1.081l4.053.473 3.108 4.658c2.905 4.391 3.422 4.64 4.455 4.122.35-.172 2.028-1.351 4.255-2.432 2.231-1.147 5.27-2.836 6.754-3.85 2.105-1.387 4.233-1.86 5.36-1.43.684.258 1 .85.721 1.77-.59 1.891-.561 3.072-.299 4.303.462.49 1.057.717 1.921 1.298 2.98 1.834 4.121 1.961 4.187 0v-1.482l.742 1.55c1.08 2.232 2.838 1.623 3.108-1.147.204-1.622-.204-2.702-1.283-3.85-.813-.877-1.234-2.027-.897-2.027.679 0 2.99 3.108 2.99 3.92 0 .266.406.538.944.538 1.016 0 1.756-1.418 1.756-3.374 0-.749 2.017-1.167 3.897-1.833.503-.179.499-.43.977-.761.908.192.61.203 1.286.155 1.008-.072 1.46-.354 1.742-.806 1.418-2.295 1.622-5.198.542-7.765-.497-1.24-.915-3.656-.93-4.991l.107.125.237-.966c.13-.53.255-.91.361-1.15.027-.063.016-.033.04-.075.033.05.045.051.08.122.38.762.799 2.421 1.283 3.448 2.289 5.177 2.659 11.015 3.39 16.698 1.377 10.678.925 16.874-.054 22.69-3.156 18.789-14.332 29.71-25.032 36.024-3.66 2.16-7.125 3.643-12.27 4.347-5.31.725-10.512.438-15.86-.606-4.406-.855-8.846-2.305-12.921-4.174-6.448-2.955-11.803-8.091-16.002-13.748-4.042-5.441-6.612-11.972-8.569-18.541-3.554-11.945-5.041-24.637-2.222-36.872 1.77-7.662 4.315-15.247 7.796-22.232 3.683-7.396 8.864-14.098 15.136-19.657 3.776-3.345 7.856-6.406 12.418-8.24 2.486-1.004 5.09-1.426 7.786-1.472m29.399 8.905c.742-.01 1.509.143 2.319.447.605.27 1.69 1.622 2.363 3.04.745 1.417 2.028 3.04 2.837 3.578.828.59 2.977 1.431 2.853 1.546-.259.244-4.164-.98-6.635-2.355-1.892-1.08-3.848-1.826-4.323-1.622-.541.136-2.09 2.096-3.578 4.391-2.973 4.595-3.514 8.172-1.35 8.914 1.283.406 10.802-1.846 12.36-2.091 1.124-.182 2.565.943 2.565 1.756 0 .27-2.028.674-4.458.878-2.906.269-5.539 1.011-7.5 2.159-3.51 1.96-5.534 2.096-8.303.677-2.77-1.418-2.634-2.905 1.35-10.874 3.564-7.297 6.286-10.403 9.5-10.444m-.518 6.12c.473 0 1.553 1.147 2.499 2.5 2.903 4.39 2.903 4.188.876 3.65-2.968-.881-5.3-2.255-5.857-2.627.482-1.064 1.673-3.523 2.482-3.523m-10.535 3.39c.132.02.204.105.204.256 0 .136-.744 1.894-1.69 3.988-1.553 3.31-1.96 3.714-4.256 4.122-1.351.199-3.378.402-4.526.402-1.618 0-3.172 1.08-7.428 5.267-2.972 2.905-6.35 5.945-7.498 6.754l-2.093 1.419-1.215-2.701c-1.486-3.307-1.08-3.849 3.578-4.256 3.849-.334 4.256-.607 7.365-5.133 1.146-1.69 3.239-4.39 4.725-6.008 2.3-2.634 2.77-2.904 4.053-2.164 2.162 1.148 4.593.88 6.35-.606 1.112-.912 2.038-1.405 2.431-1.34m7.256 1.249c.351.132 3.415 1.778 5.037 2.32l2.969.943-2.295 1.147c-1.215.61-3.309 1.288-4.66 1.487-3.039.474-3.648-.47-2.297-3.646.558-1.415.931-1.737 1.246-2.251m32.795.969c1.554.134 2.263-.028 2.325 2.793.137 2.363-.84 5.447-2.19 8.758-2.092 5.268-4.177 7.315-5.396 5.151-.702-1.227-2.33-3.688-5.052-5.92-.207-.172-.47-.443-1.052-.575-.853-.198-1.087.136-1.307-.031-1.142-1.526-1.108-2.209.378-2.275.814 0 2.03.61 2.703 1.418.609.745 1.96 1.826 2.904 2.295 1.622.88 1.892.813 3.311-.673 1.08-1.148 1.694-2.785 1.802-4.854.104-2.036-.653-3.182-4.101-3.928-1.01-.199-3.011-.177-2.741-.38.606-.606 6.46-1.848 8.416-1.78zm-18.44 7.548c1.75.035 1.976.582 2.23 1.974.473 2.567 1.96 3.175 1.553.61-.271-1.826-.271-1.826.742-.61.609.742 1.084 2.091 1.084 3.04 0 .945.204 2.432.402 3.24.339 1.153.001 1.486-1.754 1.893l-2.23.474.474 3.985c.204 2.16.877 5.065 1.418 6.483 1.013 2.364.809 6.55-.339 7.296-.271.199-1.956.132-3.646-.069-2.77-.406-3.108-.609-3.108-2.23v-3.04c0-1.35-.27-1.352-2.7-.065-1.148.606-2.026 1.551-2.026 2.16 0 1.554 1.957 3.578 3.443 3.578.677 0 3.925.61 4.815.618-.02.259-.395.486-.643.562-1.023.326-2.693.147-3.295.035-1.079-.135-1.215.204-1.147 2.165.135 1.283 0 1.887-.272 1.35-.2-.542-1.146-1.757-2.16-2.702-1.078-1.012-1.824-2.633-1.956-4.051-.338-3.176-1.69-5.607-4.391-7.902-2.836-2.367-3.917-4.257-3.379-6.149.272-1.08.882-1.486 2.163-1.486 2.295-.068 6.62-2.024 9.389-4.323 3.645-3.173 2.43-3.308-1.892-.268-3.579 2.5-4.59 2.902-8.644 3.105l-4.527.338 2.228-2.295c1.149-1.214 2.164-2.43 2.164-2.701 0-1.42 6.212-4.053 10.874-4.595 2.482-.278 4.08-.441 5.13-.42m-27.148.184c1.615.038 2.26.304 2.565.914.339.605 1.622 1.618 2.905 2.227 1.283.61 2.77 1.08 3.307 1.08 1.758 0-.334 2.5-3.172 3.781-1.418.61-2.566 1.35-2.566 1.622 0 .27 1.35.745 3.036 1.012 2.701.339 3.04.61 2.702 1.758-.673 2.162.812 4.865 4.12 7.701 2.632 2.162 2.973 2.703 2.163 3.444-.677.673-1.688.808-3.916.406l-3.04-.542.203-3.51c.203-3.854-.813-4.798-1.486-1.419-1.012 5.131-.407 6.077 4.39 6.957 1.35.2 3.104 1.148 3.917 2.024l1.486 1.622-1.96.673c-1.148.408-2.295.475-2.566.136-1.418-1.214-4.798-1.214-6.686 0l-1.96 1.283-2.702-2.16c-3.781-2.904-4.254-3.646-5.539-7.698-.944-3.244-1.957-4.796-2.634-4.12-.136.136.339 2.091 1.148 4.455 1.286 3.984 3.108 6.42 6.957 9.189.744.537 1.216 1.079 1.017 1.283-.475.402-8.648 4.522-9.054 4.522-.204 0-1.621-1.957-3.172-4.386-2.434-3.787-3.108-4.392-4.933-4.46-1.148-.068-2.905-.27-3.917-.54l-1.757-.404 1.622-3.921 1.69-3.917-1.487-2.363c-.877-1.486-1.216-2.77-.944-3.51.469-1.017.606-.95.944.402.543 2.096 1.622 1.96 1.757-.204 0-.942.944-2.565 1.956-3.577 1.084-1.013 1.758-1.486 1.487-1.012-.47.945.204 2.904 1.012 2.904.34 0 .61-1.015.61-2.23 0-1.551.741-2.97 2.702-5.201 2.295-2.634 2.632-2.836 2.7-1.554 0 .882.409 1.554.88 1.554.608 0 .81-.606.607-1.957l-.27-2.028 3.917-.204a30 30 0 0 1 1.961-.033zm33.759 3.121c.139-.02.322.024.531.115.837.36 2.006 1.714 3.53 3.619.743.948 2.025 2.77 2.906 3.984 0 0 .565.707 1.224 1.347a19 19 0 0 0 1.398 1.224s-1.089.05-3.435-.61c-5.388-1.518-5.738-2.295-5.335-3.917.337-1.284.473-1.284 2.23.403.945.948 2.026 1.486 2.229 1.219.741-.678-2.904-4.187-3.985-3.784-.944.338-1.794-2.189-1.558-3.345.031-.156.126-.235.265-.255m-8.366 3.128c-.741 0-.543.471.745 1.822 1.012 1.016 2.091 1.62 2.295 1.35.673-.673-1.758-3.172-3.04-3.172m.006 2.836c-1.13-.007-2.55.527-3.652 1.551-1.486 1.418-1.689 2.029-1.147 3.04.403.745 1.215 1.352 1.752 1.352 1.418 0 5.2-3.85 4.866-4.93-.238-.68-.94-1.01-1.819-1.013m.136.591c.306.013.468.22.468.626 0 .334-.475.673-1.017.673-.536 0-1.283.61-1.685 1.35-.407.745-1.084 1.148-1.486.949-.475-.339-.135-1.084 1.08-2.096 1.222-1.013 2.13-1.525 2.64-1.502m5.873 1.299c.469 0 .673.204.469.474a.81.81 0 0 1-.943 0c-.204-.271 0-.474.474-.474m-3.163 11.647c-1.215-.047-2.889.255-3.223.598-.27.275-.37.722-.421 1.07-.051.352.078.81.226 1.082.694 1.255 2.693.832 4.28-.957.949-1.012.949-1.283.135-1.618-.237-.104-.59-.159-.996-.175zm-.402 1.03c.25.02.398.096.398.28 0 .375-2.142 1.65-2.426.858-.29-.816.309-1.02 1.046-1.088.389-.035.734-.07.982-.05m-5.893.157c.335 0 .674.74.674 1.689h.002c0 1.752-.946 2.227-1.692 1.011-.606-.948.069-2.7 1.016-2.7m-6.14.68c.419.007.737.375.737 1.01 0 .538-.271 1.013-.61 1.013-.877 0-1.485-1.08-.944-1.622.278-.278.566-.405.817-.401M41.523 78.134q-3.438 0-6.187 1.148-2.748 1.152-4.642 3.182c-1.272 1.367-2.24 2.975-2.909 4.81-.665 1.842-1 3.841-1 6.005q.001 4.415 2.725 6.81c1.822 1.597 4.348 2.4 7.583 2.4.885 0 1.709-.072 2.482-.208a22 22 0 0 0 2.247-.518 23 23 0 0 0 2.097-.702l1.877-.765 2.33-10.073h-9.391l-.602 2.63h6.26l-1.326 6.009a18.4 18.4 0 0 1-2.623.749 15 15 0 0 1-2.989.291q-3.624 0-5.477-1.845c-1.233-1.231-1.85-2.971-1.85-5.232a15.5 15.5 0 0 1 .67-4.478q.667-2.225 1.975-3.894a10.1 10.1 0 0 1 3.295-2.725q1.956-1.029 4.556-1.029 2.366.001 4.423.735c1.37.49 2.642 1.278 3.805 2.374h.286l.71-3.562q-2.146-1.124-4.204-1.618a17.5 17.5 0 0 0-4.12-.494zm24.447 0q-3.263 0-5.91 1.204c-1.764.803-3.256 1.899-4.463 3.286q-1.83 2.115-2.805 4.917-.978 2.808-.976 6.057 0 4.239 2.539 6.547 2.536 2.31 6.997 2.31 2.426 0 4.578-.669 2.153-.668 3.81-1.505l.74-3.627h-.223q-.582.461-1.403.993a15 15 0 0 1-1.844 1.024 13.4 13.4 0 0 1-2.451.86q-1.345.341-2.845.34-3.184 0-4.869-1.806-1.691-1.806-1.69-5.052a15.7 15.7 0 0 1 .758-4.902q.758-2.302 2.08-3.909a9.7 9.7 0 0 1 3.203-2.577q1.841-.921 4.05-.921 1.448-.002 2.648.307 1.197.304 2.064.765c.705.354 1.231.685 1.586.984a18 18 0 0 1 1.048.97h.235l.71-3.532c-1.271-.713-2.51-1.24-3.722-1.57a14.5 14.5 0 0 0-3.845-.494m22.574 0q-3.265 0-5.91 1.204-2.647 1.205-4.463 3.286-1.829 2.115-2.805 4.917-.976 2.808-.977 6.057 0 4.239 2.538 6.547 2.537 2.31 6.998 2.31 2.426 0 4.578-.669 2.153-.668 3.81-1.505l.74-3.627h-.223a19 19 0 0 1-1.402.993 15 15 0 0 1-1.845 1.024 13.4 13.4 0 0 1-2.45.86q-1.346.341-2.846.34-3.184 0-4.869-1.806-1.686-1.806-1.685-5.052 0-2.6.753-4.902.758-2.302 2.084-3.909a9.7 9.7 0 0 1 3.2-2.577q1.841-.921 4.048-.921 1.455-.002 2.65.307 1.196.304 2.063.765c.705.354 1.233.685 1.587.984a18 18 0 0 1 1.047.97h.235l.71-3.532c-1.272-.713-2.51-1.24-3.717-1.57a14.5 14.5 0 0 0-3.85-.494z"/><path fill="#ffcfab" d="M85.252 53.046s-.45.482-.969.845c-.513.362-1.167.606-1.167.606s2.43 3.144 2.785 2.737c.359-.406.1-1.108-.051-2.024-.155-.924-.598-2.163-.598-2.163zm0 0"/></symbol><symbol id="espressif" viewBox="0 0 24 24"><image width="24" height="24" href="https://www.espressif.com/sites/all/themes/espressif/favicon.ico"/></symbol><symbol id="kicad" viewBox="0 0 24 24"><image width="24" height="24" href="https://www.kicad.org/apple-touch-icon-60x60.png"/></symbol><symbol id="arduino" viewBox="0 0 128 128"><g fill="#00979c" fill-rule="evenodd"><path d="M.3 66.5v-9.6c.2-.1.2-.3.2-.5 3-13.1 11.2-21 24.2-24.1 1.1-.3 2.3-.2 3.4-.6h6.4c.1.2.4.1.6.1 6.4.7 12.2 3 17.3 7 4.4 3.3 7.8 7.5 10.9 12 .4.6.6.6 1 0 1.8-2.6 3.7-5.1 5.9-7.4 5.3-5.7 11.7-9.7 19.5-11.1 1.1-.3 2.4-.2 3.5-.6h6.2c.1.2.3.1.5.1 1.9.2 3.7.6 5.5 1.1 13.4 3.9 22.9 16.2 22.1 30.1-.6 11.7-6.5 20.1-16.8 25.4-5.1 2.8-10.7 3.5-16.5 3.4-7.6-.1-14.2-2.7-19.9-7.7-4-3.5-7.1-7.7-10-12.1-.4-.6-.6-.5-1 .1-1.8 2.7-3.7 5.4-5.9 8-3.9 4.4-8.4 8-14 9.9-6.9 2.4-13.9 2.5-20.9.6-10.1-2.9-17-9.3-20.8-19.1-.6-1.6-.9-3.4-1.4-5m31.8 14.7c5.7.2 10.6-1.7 14.8-5.6 4.3-4 7.4-9 10.5-13.9.1-.3.1-.5-.1-.8-2.6-4.1-5.3-8.2-8.9-11.6-6.9-6.6-15-8.8-24.1-5.9-7.5 2.5-12.3 7.8-13.4 15.8-1.1 7.5 1.8 13.5 7.8 18 4 2.9 8.5 4.1 13.4 4m63.4 0c2.2 0 4.4-.1 6.5-.7 7.9-2.4 13.1-7.3 14.6-15.5 1.5-8.1-1.6-14.6-8.4-19.2-7.5-5.2-18.4-4.7-26 1-5.1 3.8-8.5 8.9-11.9 14.2-.2.3-.1.5 0 .8 2.7 4.3 5.4 8.6 8.9 12.3 4.4 4.7 9.7 7.4 16.3 7.1m0 0"/><path d="M32 58.5c3.2 0 6.5.1 9.7 0 .8 0 .9.2.9 1q-.15 1.35 0 2.7c.1.8-.1 1-1 1H28.8c-2.2 0-4.4-.1-6.6 0-.7 0-.9-.2-.9-1 .1-.9.1-1.8 0-2.8 0-.7.2-.9.9-.9 3.2.1 6.5 0 9.8 0m63-6.4c.8 0 1.6.1 2.3 0 .5 0 .7.2.7.7-.1 1.4 0 2.8-.1 4.2 0 .7.2.9.9.9 1.3-.1 2.7 0 4.1-.1.6 0 .8.1.8.8v4.6c0 .5-.2.7-.7.7-1.4-.1-2.8 0-4.3-.1-.6 0-.8.2-.8.8.1 1.4 0 2.8.1 4.2 0 .6-.2.9-.8.9q-2.25-.15-4.5 0c-.6 0-.8-.2-.8-.8.1-1.5 0-2.9.1-4.4 0-.5-.2-.7-.7-.7-1.4.1-2.8 0-4.2.1-.8 0-.9-.3-.9-.9 0-1.4.1-2.8 0-4.2-.1-.8.3-1 1-1 1.4.1 2.7 0 4.1.1.5 0 .7-.2.7-.7-.1-1.4 0-2.9-.1-4.3 0-.6.2-.8.8-.8.8.1 1.5 0 2.3 0m29.852-27.623c-.133.199-.18.265-.223.332-.242.363-.055 1.097-.664 1.086-.54-.012-.403-.684-.594-1.051-.05-.098-.11-.188-.277-.461 0 .504.008.789 0 1.078-.008.195.035.441-.274.457-.312.016-.293-.234-.297-.43q-.01-1.019-.003-2.031c0-.23-.036-.496.324-.504.27-.004.504-.015.617.336.144.43.195.91.527 1.324.317-.402.371-.867.492-1.293.102-.347.317-.37.598-.37.356.003.34.253.344.488.004.68.004 1.355-.004 2.035-.004.191.023.445-.281.449-.305 0-.282-.242-.285-.442-.008-.289 0-.574 0-1.003m-3.712-1.532c.087 0 .18-.015.262 0 .325.063.828-.187.934.2.144.543-.426.27-.668.386-.242.117-.195.332-.2.528-.011.468-.007.937-.007 1.406 0 .258-.05.473-.383.46-.305-.01-.293-.234-.293-.437a37 37 0 0 1-.004-1.316c.012-.375.016-.727-.523-.676-.188.016-.352-.039-.352-.277 0-.328.254-.262.442-.27.265-.012.527-.004.793-.004zm0 0"/></g></symbol><symbol id="rf" viewBox="0 0 24 24"><image width="24" height="24"/></symbol></svg>